999
DXF created from QGIS
  0
SECTION
  2
HEADER
  9
$ACADVER
  1
AC1015
  9
$EXTMIN
 10
8944971.11654496006667614
 20
7384834.71020086575299501
 30
0.0
  9
$EXTMAX
 10
9020741.72982881963253021
 20
7401782.10026972275227308
 30
0.0
  9
$LTSCALE
 40
1.0
  9
$PDMODE
 70
    33
  9
$PDSIZE
 40
     1
  9
$PSLTSCALE
 70
     0
  9
$HANDSEED
  5
9999999
  9
$DWGCODEPAGE
  3

  0
ENDSEC
  0
SECTION
  2
TABLES
  0
TABLE
  2
LTYPE
  5
64
100
AcDbSymbolTable
 70
     5
  0
LTYPE
  5
65
100
AcDbSymbolTableRecord
100
AcDbLinetypeTableRecord
  2
ByLayer
 70
    64
  3
Defaultstyle
 72
    65
 73
     0
 40
0.0
  0
LTYPE
  5
66
100
AcDbSymbolTableRecord
100
AcDbLinetypeTableRecord
  2
ByBlock
 70
    64
  3
Defaultstyle
 72
    65
 73
     0
 40
0.0
  0
LTYPE
  5
67
100
AcDbSymbolTableRecord
100
AcDbLinetypeTableRecord
  2
CONTINUOUS
 70
    64
  3
Defaultstyle
 72
    65
 73
     0
 40
0.0
  0
LTYPE
  5
68
100
AcDbSymbolTableRecord
100
AcDbLinetypeTableRecord
  2
DASH
 70
    64
  3

 72
    65
 73
     2
 40
2600.0
 49
2000.0
 74
     0
 49
-600.0
 74
     0
  0
LTYPE
  5
69
100
AcDbSymbolTableRecord
100
AcDbLinetypeTableRecord
  2
DOT
 70
    64
  3

 72
    65
 73
     2
 40
1200.0
 49
600.0
 74
     0
 49
-600.0
 74
     0
  0
LTYPE
  5
6a
100
AcDbSymbolTableRecord
100
AcDbLinetypeTableRecord
  2
DASHDOT
 70
    64
  3

 72
    65
 73
     4
 40
3800.0
 49
2000.0
 74
     0
 49
-600.0
 74
     0
 49
600.0
 74
     0
 49
-600.0
 74
     0
  0
LTYPE
  5
6b
100
AcDbSymbolTableRecord
100
AcDbLinetypeTableRecord
  2
DASHDOTDOT
 70
    64
  3

 72
    65
 73
     6
 40
5000.0
 49
2000.0
 74
     0
 49
-600.0
 74
     0
 49
600.0
 74
     0
 49
-600.0
 74
     0
 49
600.0
 74
     0
 49
-600.0
 74
     0
  0
ENDTAB
  0
TABLE
  2
BLOCK_RECORD
  5
6c
100
AcDbSymbolTable
 70
     0
  0
BLOCK_RECORD
  5
6d
100
AcDbSymbolTableRecord
100
AcDbBlockTableRecord
  2
*Model_Space
  0
BLOCK_RECORD
  5
6e
100
AcDbSymbolTableRecord
100
AcDbBlockTableRecord
  2
*Paper_Space
  0
BLOCK_RECORD
  5
6f
100
AcDbSymbolTableRecord
100
AcDbBlockTableRecord
  2
*Paper_Space0
  0
BLOCK_RECORD
  5
70
100
AcDbSymbolTableRecord
100
AcDbBlockTableRecord
  2
symbolLayer0
  0
ENDTAB
  0
TABLE
  2
APPID
  5
71
100
AcDbSymbolTable
 70
     1
  0
APPID
  5
72
100
AcDbSymbolTableRecord
100
AcDbRegAppTableRecord
  2
ACAD
 70
     0
  0
ENDTAB
  0
TABLE
  2
VIEW
  5
73
100
AcDbSymbolTable
 70
     0
  0
ENDTAB
  0
TABLE
  2
UCS
  5
74
100
AcDbSymbolTable
 70
     0
  0
ENDTAB
  0
TABLE
  2
VPORT
  5
75
100
AcDbSymbolTable
  0
VPORT
  5
76
100
AcDbSymbolTableRecord
100
AcDbViewportTableRecord
  2
*ACTIVE
 70
     0
 10
0.0
 20
0.0
 11
1.0
 21
1.0
 12
0.0
 22
0.0
 13
0.0
 23
0.0
 14
1.0
 24
1.0
 15
1.0
 25
1.0
 16
0.0
 26
0.0
 36
1.0
 17
8982856.42318689078092575
 27
7393308.40523529425263405
 40
16947.39006885699927807
 41
4.47093109770912633
 42
50.0
 43
0.0
 44
0.0
 50
0.0
 51
0.0
 71
     0
 72
   100
 73
     1
 74
     1
 75
     0
 76
     0
 77
     0
 78
     0
281
     0
 65
     1
110
0.0
120
0.0
130
0.0
111
1.0
121
0.0
131
0.0
112
0.0
122
1.0
132
0.0
 79
     0
146
0.0
 70
     0
  0
ENDTAB
  0
TABLE
  2
DIMSTYLE
  5
77
100
AcDbSymbolTable
100
AcDbDimStyleTable
 70
     0
  0
ENDTAB
  0
TABLE
  2
LAYER
  5
78
100
AcDbSymbolTable
 70
     4
  0
LAYER
  5
79
100
AcDbSymbolTableRecord
100
AcDbLayerTableRecord
  2
0
 70
    64
 62
     1
  6
CONTINUOUS
390
f
  0
LAYER
  5
7a
100
AcDbSymbolTableRecord
100
AcDbLayerTableRecord
  2
lab1
 70
    64
 62
     1
  6
CONTINUOUS
390
f
  0
LAYER
  5
7b
100
AcDbSymbolTableRecord
100
AcDbLayerTableRecord
  2
highway
 70
    64
 62
     1
  6
CONTINUOUS
390
f
  0
LAYER
  5
7c
100
AcDbSymbolTableRecord
100
AcDbLayerTableRecord
  2
building
 70
    64
 62
     1
  6
CONTINUOUS
390
f
  0
ENDTAB
  0
TABLE
  2
STYLE
  5
7d
100
AcDbSymbolTable
 70
     1
  0
STYLE
  5
7e
100
AcDbSymbolTableRecord
100
AcDbTextStyleTableRecord
  2
STANDARD
 70
    64
 40
0.0
 41
1.0
 50
0.0
 71
     0
 42
5.0
  3
romans.shx
  4

  0
ENDTAB
  0
ENDSEC
  0
SECTION
  2
BLOCKS
  0
BLOCK
  5
7f
330
6d
100
AcDbEntity
  8
0
100
AcDbBlockBegin
  2
*Model_Space
 70
     0
 10
0.0
 20
0.0
 30
0.0
  3
*Model_Space
  1

  0
ENDBLK
  5
80
100
AcDbEntity
  8
0
100
AcDbBlockEnd
  0
BLOCK
  5
81
330
6e
100
AcDbEntity
  8
0
100
AcDbBlockBegin
  2
*Paper_Space
 70
     0
 10
0.0
 20
0.0
 30
0.0
  3
*Paper_Space
  1

  0
ENDBLK
  5
82
100
AcDbEntity
  8
0
100
AcDbBlockEnd
  0
BLOCK
  5
83
330
6f
100
AcDbEntity
  8
0
100
AcDbBlockBegin
  2
*Paper_Space0
 70
     0
 10
0.0
 20
0.0
 30
0.0
  3
*Paper_Space0
  1

  0
ENDBLK
  5
84
100
AcDbEntity
  8
0
100
AcDbBlockEnd
  0
BLOCK
  5
85
330
70
100
AcDbEntity
  8
0
100
AcDbBlockBegin
  2
symbolLayer0
 70
     0
 10
0.0
 20
0.0
 30
0.0
  3
symbolLayer0
  1

  0
HATCH
  5
86
330
70
100
AcDbEntity
  8
0
420
12504912
100
AcDbHatch
 10
0.0
 20
0.0
 30
0.0
210
0.0
220
0.0
230
1.0
  2
SOLID
 70
     1
 71
     0
 91
     1
 92
     3
 72
     1
 73
     1
 93
     2
 10
-1000.0
 20
0.0
 42
1.0
 10
1000.0
 20
0.0
 42
1.0
 97
     0
 75
     0
 76
     1
 98
     0
  0
LWPOLYLINE
  5
87
330
70
  8
0
100
AcDbEntity
100
AcDbPolyline
  6
CONTINUOUS
420
2302755
 90
     2
 70
     1
 43
0.0
 10
-1000.0
 20
0.0
 42
1.0
 10
1000.0
 20
0.0
 42
1.0
  0
ENDBLK
  5
88
100
AcDbEntity
  8
0
100
AcDbBlockEnd
  0
ENDSEC
  0
SECTION
  2
ENTITIES
  0
LWPOLYLINE
  5
89
  8
lab1
100
AcDbEntity
100
AcDbPolyline
  6
CONTINUOUS
420
14948892
 90
     4
 70
   128
 43
960.0
 10
8973249.0
 20
7393086.0
 10
8977480.0
 20
7392405.0
 10
8976766.0
 20
7390477.0
 10
8974382.0
 20
7390981.0
  0
LWPOLYLINE
  5
8a
  8
building
100
AcDbEntity
100
AcDbPolyline
  6
CONTINUOUS
420
2302755
 90
     5
 70
   129
 43
260.0
 10
8976068.86195110902190208
 20
7390370.13103618565946817
 10
8976168.90477748587727547
 20
7390342.5485325688496232
 10
8976162.09202464856207371
 20
7390317.8295499961823225
 10
8976062.04919827170670033
 20
7390345.41196588892489672
 10
8976068.86195110902190208
 20
7390370.13103618565946817
  0
HATCH
  5
8b
330
6d
100
AcDbEntity
  8
building
420
8227727
100
AcDbHatch
 10
0.0
 20
0.0
 30
0.0
210
0.0
220
0.0
230
1.0
  2
SOLID
 70
     1
 71
     0
 91
     1
 92
     2
 72
     0
 73
     1
 93
     5
 10
8976068.86195110902190208
 20
7390370.13103618565946817
 10
8976168.90477748587727547
 20
7390342.5485325688496232
 10
8976162.09202464856207371
 20
7390317.8295499961823225
 10
8976062.04919827170670033
 20
7390345.41196588892489672
 10
8976068.86195110902190208
 20
7390370.13103618565946817
 97
     0
 75
     0
 76
     1
 98
     0
  0
LWPOLYLINE
  5
8c
  8
building
100
AcDbEntity
100
AcDbPolyline
  6
CONTINUOUS
420
2302755
 90
     5
 70
   129
 43
260.0
 10
8975805.2017371654510498
 20
7390691.75882445275783539
 10
8975853.82609074376523495
 20
7390680.07082731556147337
 10
8975846.34542096219956875
 20
7390648.94188068248331547
 10
8975797.72106738388538361
 20
7390660.62983100768178701
 10
8975805.2017371654510498
 20
7390691.75882445275783539
  0
HATCH
  5
8d
330
6d
100
AcDbEntity
  8
building
420
8227727
100
AcDbHatch
 10
0.0
 20
0.0
 30
0.0
210
0.0
220
0.0
230
1.0
  2
SOLID
 70
     1
 71
     0
 91
     1
 92
     2
 72
     0
 73
     1
 93
     5
 10
8975805.2017371654510498
 20
7390691.75882445275783539
 10
8975853.82609074376523495
 20
7390680.07082731556147337
 10
8975846.34542096219956875
 20
7390648.94188068248331547
 10
8975797.72106738388538361
 20
7390660.62983100768178701
 10
8975805.2017371654510498
 20
7390691.75882445275783539
 97
     0
 75
     0
 76
     1
 98
     0
  0
LWPOLYLINE
  5
8e
  8
building
100
AcDbEntity
100
AcDbPolyline
  6
CONTINUOUS
420
2302755
 90
     5
 70
   129
 43
260.0
 10
8975290.64965487085282803
 20
7392462.88831669837236404
 10
8975301.54783301986753941
 20
7392507.2155662477016449
 10
8975319.02499307505786419
 20
7392502.92896404024213552
 10
8975308.12681492604315281
 20
7392458.58225450292229652
 10
8975290.64965487085282803
 20
7392462.88831669837236404
  0
HATCH
  5
8f
330
6d
100
AcDbEntity
  8
building
420
8227727
100
AcDbHatch
 10
0.0
 20
0.0
 30
0.0
210
0.0
220
0.0
230
1.0
  2
SOLID
 70
     1
 71
     0
 91
     1
 92
     2
 72
     0
 73
     1
 93
     5
 10
8975290.64965487085282803
 20
7392462.88831669837236404
 10
8975301.54783301986753941
 20
7392507.2155662477016449
 10
8975319.02499307505786419
 20
7392502.92896404024213552
 10
8975308.12681492604315281
 20
7392458.58225450292229652
 10
8975290.64965487085282803
 20
7392462.88831669837236404
 97
     0
 75
     0
 76
     1
 98
     0
  0
LWPOLYLINE
  5
90
  8
building
100
AcDbEntity
100
AcDbPolyline
  6
CONTINUOUS
420
2302755
 90
     5
 70
   129
 43
260.0
 10
8975100.33785341121256351
 20
7391945.78822486847639084
 10
8975103.92234101332724094
 20
7392010.45307973306626081
 10
8975136.51668792031705379
 20
7392008.64113160967826843
 10
8975132.93220031633973122
 20
7391943.97629182133823633
 10
8975100.33785341121256351
 20
7391945.78822486847639084
  0
HATCH
  5
91
330
6d
100
AcDbEntity
  8
building
420
8227727
100
AcDbHatch
 10
0.0
 20
0.0
 30
0.0
210
0.0
220
0.0
230
1.0
  2
SOLID
 70
     1
 71
     0
 91
     1
 92
     2
 72
     0
 73
     1
 93
     5
 10
8975100.33785341121256351
 20
7391945.78822486847639084
 10
8975103.92234101332724094
 20
7392010.45307973306626081
 10
8975136.51668792031705379
 20
7392008.64113160967826843
 10
8975132.93220031633973122
 20
7391943.97629182133823633
 10
8975100.33785341121256351
 20
7391945.78822486847639084
 97
     0
 75
     0
 76
     1
 98
     0
  0
LWPOLYLINE
  5
92
  8
building
100
AcDbEntity
100
AcDbPolyline
  6
CONTINUOUS
420
2302755
 90
     5
 70
   129
 43
260.0
 10
8975670.81684787943959236
 20
7392003.49753923807293177
 10
8975675.44773869588971138
 20
7392024.24727929569780827
 10
8975706.79530730471014977
 20
7392017.27224312257021666
 10
8975702.1644164863973856
 20
7391996.50303840916603804
 10
8975670.81684787943959236
 20
7392003.49753923807293177
  0
HATCH
  5
93
330
6d
100
AcDbEntity
  8
building
420
8227727
100
AcDbHatch
 10
0.0
 20
0.0
 30
0.0
210
0.0
220
0.0
230
1.0
  2
SOLID
 70
     1
 71
     0
 91
     1
 92
     2
 72
     0
 73
     1
 93
     5
 10
8975670.81684787943959236
 20
7392003.49753923807293177
 10
8975675.44773869588971138
 20
7392024.24727929569780827
 10
8975706.79530730471014977
 20
7392017.27224312257021666
 10
8975702.1644164863973856
 20
7391996.50303840916603804
 10
8975670.81684787943959236
 20
7392003.49753923807293177
 97
     0
 75
     0
 76
     1
 98
     0
  0
LWPOLYLINE
  5
94
  8
building
100
AcDbEntity
100
AcDbPolyline
  6
CONTINUOUS
420
2302755
 90
     5
 70
   129
 43
260.0
 10
8975787.57986177317798138
 20
7391866.55064430180937052
 10
8975791.37585640884935856
 20
7391889.40418372675776482
 10
8975820.26326427049934864
 20
7391884.59188126213848591
 10
8975816.45613768510520458
 20
7391861.73835598956793547
 10
8975787.57986177317798138
 20
7391866.55064430180937052
  0
HATCH
  5
95
330
6d
100
AcDbEntity
  8
building
420
8227727
100
AcDbHatch
 10
0.0
 20
0.0
 30
0.0
210
0.0
220
0.0
230
1.0
  2
SOLID
 70
     1
 71
     0
 91
     1
 92
     2
 72
     0
 73
     1
 93
     5
 10
8975787.57986177317798138
 20
7391866.55064430180937052
 10
8975791.37585640884935856
 20
7391889.40418372675776482
 10
8975820.26326427049934864
 20
7391884.59188126213848591
 10
8975816.45613768510520458
 20
7391861.73835598956793547
 10
8975787.57986177317798138
 20
7391866.55064430180937052
 97
     0
 75
     0
 76
     1
 98
     0
  0
LWPOLYLINE
  5
96
  8
building
100
AcDbEntity
100
AcDbPolyline
  6
CONTINUOUS
420
2302755
 90
     5
 70
   129
 43
260.0
 10
8974546.80168544128537178
 20
7392014.89527691993862391
 10
8974550.94277049973607063
 20
7392034.49552815593779087
 10
8974573.10648111626505852
 20
7392029.80003602989017963
 10
8974568.96539605781435966
 20
7392010.19979663658887148
 10
8974546.80168544128537178
 20
7392014.89527691993862391
  0
HATCH
  5
97
330
6d
100
AcDbEntity
  8
building
420
8227727
100
AcDbHatch
 10
0.0
 20
0.0
 30
0.0
210
0.0
220
0.0
230
1.0
  2
SOLID
 70
     1
 71
     0
 91
     1
 92
     2
 72
     0
 73
     1
 93
     5
 10
8974546.80168544128537178
 20
7392014.89527691993862391
 10
8974550.94277049973607063
 20
7392034.49552815593779087
 10
8974573.10648111626505852
 20
7392029.80003602989017963
 10
8974568.96539605781435966
 20
7392010.19979663658887148
 10
8974546.80168544128537178
 20
7392014.89527691993862391
 97
     0
 75
     0
 76
     1
 98
     0
  0
LWPOLYLINE
  5
98
  8
building
100
AcDbEntity
100
AcDbPolyline
  6
CONTINUOUS
420
2302755
 90
     5
 70
   129
 43
260.0
 10
8976430.03803898766636848
 20
7391708.68186607956886292
 10
8976430.03803898766636848
 20
7391731.2232194235548377
 10
8976460.43939192406833172
 20
7391731.2232194235548377
 10
8976460.43939192406833172
 20
7391708.68186607956886292
 10
8976430.03803898766636848
 20
7391708.68186607956886292
  0
HATCH
  5
99
330
6d
100
AcDbEntity
  8
building
420
8227727
100
AcDbHatch
 10
0.0
 20
0.0
 30
0.0
210
0.0
220
0.0
230
1.0
  2
SOLID
 70
     1
 71
     0
 91
     1
 92
     2
 72
     0
 73
     1
 93
     5
 10
8976430.03803898766636848
 20
7391708.68186607956886292
 10
8976430.03803898766636848
 20
7391731.2232194235548377
 10
8976460.43939192406833172
 20
7391731.2232194235548377
 10
8976460.43939192406833172
 20
7391708.68186607956886292
 10
8976430.03803898766636848
 20
7391708.68186607956886292
 97
     0
 75
     0
 76
     1
 98
     0
  0
LWPOLYLINE
  5
9a
  8
building
100
AcDbEntity
100
AcDbPolyline
  6
CONTINUOUS
420
2302755
 90
     5
 70
   129
 43
260.0
 10
8976016.34141535311937332
 20
7392292.44021970313042402
 10
8976051.44045079872012138
 20
7392376.98185267113149166
 10
8976081.80840788967907429
 20
7392364.37556327506899834
 10
8976046.69824049063026905
 20
7392279.8340674452483654
 10
8976016.34141535311937332
 20
7392292.44021970313042402
  0
HATCH
  5
9b
330
6d
100
AcDbEntity
  8
building
420
8227727
100
AcDbHatch
 10
0.0
 20
0.0
 30
0.0
210
0.0
220
0.0
230
1.0
  2
SOLID
 70
     1
 71
     0
 91
     1
 92
     2
 72
     0
 73
     1
 93
     5
 10
8976016.34141535311937332
 20
7392292.44021970313042402
 10
8976051.44045079872012138
 20
7392376.98185267113149166
 10
8976081.80840788967907429
 20
7392364.37556327506899834
 10
8976046.69824049063026905
 20
7392279.8340674452483654
 10
8976016.34141535311937332
 20
7392292.44021970313042402
 97
     0
 75
     0
 76
     1
 98
     0
  0
LWPOLYLINE
  5
9c
  8
building
100
AcDbEntity
100
AcDbPolyline
  6
CONTINUOUS
420
2302755
 90
     5
 70
   129
 43
260.0
 10
8974605.31120980158448219
 20
7391999.81519679073244333
 10
8974608.81777376309037209
 20
7392016.0058266120031476
 10
8974625.79399610869586468
 20
7392012.34296156000345945
 10
8974622.28743214905261993
 20
7391996.1328560896217823
 10
8974605.31120980158448219
 20
7391999.81519679073244333
  0
HATCH
  5
9d
330
6d
100
AcDbEntity
  8
building
420
8227727
100
AcDbHatch
 10
0.0
 20
0.0
 30
0.0
210
0.0
220
0.0
230
1.0
  2
SOLID
 70
     1
 71
     0
 91
     1
 92
     2
 72
     0
 73
     1
 93
     5
 10
8974605.31120980158448219
 20
7391999.81519679073244333
 10
8974608.81777376309037209
 20
7392016.0058266120031476
 10
8974625.79399610869586468
 20
7392012.34296156000345945
 10
8974622.28743214905261993
 20
7391996.1328560896217823
 10
8974605.31120980158448219
 20
7391999.81519679073244333
 97
     0
 75
     0
 76
     1
 98
     0
  0
LWPOLYLINE
  5
9e
  8
building
100
AcDbEntity
100
AcDbPolyline
  6
CONTINUOUS
420
2302755
 90
     5
 70
   129
 43
260.0
 10
8975918.17988836951553822
 20
7392337.2146321227774024
 10
8975960.80412139743566513
 20
7392420.68511318508535624
 10
8975987.67664647288620472
 20
7392406.96814717631787062
 10
8975945.04128149896860123
 20
7392323.49781344272196293
 10
8975918.17988836951553822
 20
7392337.2146321227774024
  0
HATCH
  5
9f
330
6d
100
AcDbEntity
  8
building
420
8227727
100
AcDbHatch
 10
0.0
 20
0.0
 30
0.0
210
0.0
220
0.0
230
1.0
  2
SOLID
 70
     1
 71
     0
 91
     1
 92
     2
 72
     0
 73
     1
 93
     5
 10
8975918.17988836951553822
 20
7392337.2146321227774024
 10
8975960.80412139743566513
 20
7392420.68511318508535624
 10
8975987.67664647288620472
 20
7392406.96814717631787062
 10
8975945.04128149896860123
 20
7392323.49781344272196293
 10
8975918.17988836951553822
 20
7392337.2146321227774024
 97
     0
 75
     0
 76
     1
 98
     0
  0
LWPOLYLINE
  5
a0
  8
building
100
AcDbEntity
100
AcDbPolyline
  6
CONTINUOUS
420
2302755
 90
     5
 70
   129
 43
260.0
 10
8976444.53183668851852417
 20
7392555.55691210646182299
 10
8976562.57502472586929798
 20
7392652.31844565644860268
 10
8976582.62366501800715923
 20
7392627.86490365862846375
 10
8976464.56934503093361855
 20
7392531.10367458406835794
 10
8976444.53183668851852417
 20
7392555.55691210646182299
  0
HATCH
  5
a1
330
6d
100
AcDbEntity
  8
building
420
8227727
100
AcDbHatch
 10
0.0
 20
0.0
 30
0.0
210
0.0
220
0.0
230
1.0
  2
SOLID
 70
     1
 71
     0
 91
     1
 92
     2
 72
     0
 73
     1
 93
     5
 10
8976444.53183668851852417
 20
7392555.55691210646182299
 10
8976562.57502472586929798
 20
7392652.31844565644860268
 10
8976582.62366501800715923
 20
7392627.86490365862846375
 10
8976464.56934503093361855
 20
7392531.10367458406835794
 10
8976444.53183668851852417
 20
7392555.55691210646182299
 97
     0
 75
     0
 76
     1
 98
     0
  0
LWPOLYLINE
  5
a2
  8
building
100
AcDbEntity
100
AcDbPolyline
  6
CONTINUOUS
420
2302755
 90
     5
 70
   129
 43
260.0
 10
8977097.39838629402220249
 20
7391712.65630911104381084
 10
8977092.95673860982060432
 20
7391731.26218465343117714
 10
8977109.42089129984378815
 20
7391735.1781913572922349
 10
8977113.86253898218274117
 20
7391716.57230644021183252
 10
8977097.39838629402220249
 20
7391712.65630911104381084
  0
HATCH
  5
a3
330
6d
100
AcDbEntity
  8
building
420
8227727
100
AcDbHatch
 10
0.0
 20
0.0
 30
0.0
210
0.0
220
0.0
230
1.0
  2
SOLID
 70
     1
 71
     0
 91
     1
 92
     2
 72
     0
 73
     1
 93
     5
 10
8977097.39838629402220249
 20
7391712.65630911104381084
 10
8977092.95673860982060432
 20
7391731.26218465343117714
 10
8977109.42089129984378815
 20
7391735.1781913572922349
 10
8977113.86253898218274117
 20
7391716.57230644021183252
 10
8977097.39838629402220249
 20
7391712.65630911104381084
 97
     0
 75
     0
 76
     1
 98
     0
  0
LWPOLYLINE
  5
a4
  8
building
100
AcDbEntity
100
AcDbPolyline
  6
CONTINUOUS
420
2302755
 90
     5
 70
   129
 43
260.0
 10
8976521.03059076145291328
 20
7392489.69896577019244432
 10
8976616.67629725113511086
 20
7392568.08557277731597424
 10
8976636.29079153016209602
 20
7392544.1583814574405551
 10
8976540.65621698834002018
 20
7392465.75253133662045002
 10
8976521.03059076145291328
 20
7392489.69896577019244432
  0
HATCH
  5
a5
330
6d
100
AcDbEntity
  8
building
420
8227727
100
AcDbHatch
 10
0.0
 20
0.0
 30
0.0
210
0.0
220
0.0
230
1.0
  2
SOLID
 70
     1
 71
     0
 91
     1
 92
     2
 72
     0
 73
     1
 93
     5
 10
8976521.03059076145291328
 20
7392489.69896577019244432
 10
8976616.67629725113511086
 20
7392568.08557277731597424
 10
8976636.29079153016209602
 20
7392544.1583814574405551
 10
8976540.65621698834002018
 20
7392465.75253133662045002
 10
8976521.03059076145291328
 20
7392489.69896577019244432
 97
     0
 75
     0
 76
     1
 98
     0
  0
LWPOLYLINE
  5
a6
  8
building
100
AcDbEntity
100
AcDbPolyline
  6
CONTINUOUS
420
2302755
 90
     5
 70
   129
 43
260.0
 10
8977043.57541249506175518
 20
7391668.29462640825659037
 10
8977043.85371122136712074
 20
7391686.60815818607807159
 10
8977060.44031535089015961
 20
7391686.35488564521074295
 10
8977060.1620166227221489
 20
7391668.04135446157306433
 10
8977043.57541249506175518
 20
7391668.29462640825659037
  0
HATCH
  5
a7
330
6d
100
AcDbEntity
  8
building
420
8227727
100
AcDbHatch
 10
0.0
 20
0.0
 30
0.0
210
0.0
220
0.0
230
1.0
  2
SOLID
 70
     1
 71
     0
 91
     1
 92
     2
 72
     0
 73
     1
 93
     5
 10
8977043.57541249506175518
 20
7391668.29462640825659037
 10
8977043.85371122136712074
 20
7391686.60815818607807159
 10
8977060.44031535089015961
 20
7391686.35488564521074295
 10
8977060.1620166227221489
 20
7391668.04135446157306433
 10
8977043.57541249506175518
 20
7391668.29462640825659037
 97
     0
 75
     0
 76
     1
 98
     0
  0
LWPOLYLINE
  5
a8
  8
building
100
AcDbEntity
100
AcDbPolyline
  6
CONTINUOUS
420
2302755
 90
     5
 70
   129
 43
260.0
 10
8974876.73039225488901138
 20
7392272.97570571675896645
 10
8974879.07923351041972637
 20
7392289.32277674786746502
 10
8974908.99078068695962429
 20
7392285.01681071985512972
 10
8974906.6419394314289093
 20
7392268.66974874678999186
 10
8974876.73039225488901138
 20
7392272.97570571675896645
  0
HATCH
  5
a9
330
6d
100
AcDbEntity
  8
building
420
8227727
100
AcDbHatch
 10
0.0
 20
0.0
 30
0.0
210
0.0
220
0.0
230
1.0
  2
SOLID
 70
     1
 71
     0
 91
     1
 92
     2
 72
     0
 73
     1
 93
     5
 10
8974876.73039225488901138
 20
7392272.97570571675896645
 10
8974879.07923351041972637
 20
7392289.32277674786746502
 10
8974908.99078068695962429
 20
7392285.01681071985512972
 10
8974906.6419394314289093
 20
7392268.66974874678999186
 10
8974876.73039225488901138
 20
7392272.97570571675896645
 97
     0
 75
     0
 76
     1
 98
     0
  0
LWPOLYLINE
  5
aa
  8
building
100
AcDbEntity
100
AcDbPolyline
  6
CONTINUOUS
420
2302755
 90
     5
 70
   129
 43
260.0
 10
8974933.87068687938153744
 20
7392265.45489555224776268
 10
8974936.23066008277237415
 20
7392282.03575871419161558
 10
8974967.75633987598121166
 20
7392277.55444085597991943
 10
8974965.39636667259037495
 20
7392260.97358725685626268
 10
8974933.87068687938153744
 20
7392265.45489555224776268
  0
HATCH
  5
ab
330
6d
100
AcDbEntity
  8
building
420
8227727
100
AcDbHatch
 10
0.0
 20
0.0
 30
0.0
210
0.0
220
0.0
230
1.0
  2
SOLID
 70
     1
 71
     0
 91
     1
 92
     2
 72
     0
 73
     1
 93
     5
 10
8974933.87068687938153744
 20
7392265.45489555224776268
 10
8974936.23066008277237415
 20
7392282.03575871419161558
 10
8974967.75633987598121166
 20
7392277.55444085597991943
 10
8974965.39636667259037495
 20
7392260.97358725685626268
 10
8974933.87068687938153744
 20
7392265.45489555224776268
 97
     0
 75
     0
 76
     1
 98
     0
  0
LWPOLYLINE
  5
ac
  8
building
100
AcDbEntity
100
AcDbPolyline
  6
CONTINUOUS
420
2302755
 90
     5
 70
   129
 43
260.0
 10
8975154.79534830711781979
 20
7392037.28165137954056263
 10
8975156.36495312675833702
 20
7392059.12255405727773905
 10
8975205.51250831224024296
 20
7392055.57656925264745951
 10
8975203.93177154287695885
 20
7392033.7356765391305089
 10
8975154.79534830711781979
 20
7392037.28165137954056263
  0
HATCH
  5
ad
330
6d
100
AcDbEntity
  8
building
420
8227727
100
AcDbHatch
 10
0.0
 20
0.0
 30
0.0
210
0.0
220
0.0
230
1.0
  2
SOLID
 70
     1
 71
     0
 91
     1
 92
     2
 72
     0
 73
     1
 93
     5
 10
8975154.79534830711781979
 20
7392037.28165137954056263
 10
8975156.36495312675833702
 20
7392059.12255405727773905
 10
8975205.51250831224024296
 20
7392055.57656925264745951
 10
8975203.93177154287695885
 20
7392033.7356765391305089
 10
8975154.79534830711781979
 20
7392037.28165137954056263
 97
     0
 75
     0
 76
     1
 98
     0
  0
LWPOLYLINE
  5
ae
  8
building
100
AcDbEntity
100
AcDbPolyline
  6
CONTINUOUS
420
2302755
 90
     5
 70
   129
 43
260.0
 10
8975127.27717018313705921
 20
7391855.23105588555335999
 10
8975131.05090092122554779
 20
7391877.55852148402482271
 10
8975155.40760550461709499
 20
7391873.42813034076243639
 10
8975151.63387476839125156
 20
7391851.12015952449291945
 10
8975127.27717018313705921
 20
7391855.23105588555335999
  0
HATCH
  5
af
330
6d
100
AcDbEntity
  8
building
420
8227727
100
AcDbHatch
 10
0.0
 20
0.0
 30
0.0
210
0.0
220
0.0
230
1.0
  2
SOLID
 70
     1
 71
     0
 91
     1
 92
     2
 72
     0
 73
     1
 93
     5
 10
8975127.27717018313705921
 20
7391855.23105588555335999
 10
8975131.05090092122554779
 20
7391877.55852148402482271
 10
8975155.40760550461709499
 20
7391873.42813034076243639
 10
8975151.63387476839125156
 20
7391851.12015952449291945
 10
8975127.27717018313705921
 20
7391855.23105588555335999
 97
     0
 75
     0
 76
     1
 98
     0
  0
LWPOLYLINE
  5
b0
  8
building
100
AcDbEntity
100
AcDbPolyline
  6
CONTINUOUS
420
2302755
 90
     5
 70
   129
 43
260.0
 10
8976659.94618332386016846
 20
7391704.53208213951438665
 10
8976660.6586280632764101
 20
7391723.07949044555425644
 10
8976693.26410691812634468
 20
7391721.83260446693748236
 10
8976692.55166217684745789
 20
7391703.26571659091860056
 10
8976659.94618332386016846
 20
7391704.53208213951438665
  0
HATCH
  5
b1
330
6d
100
AcDbEntity
  8
building
420
8227727
100
AcDbHatch
 10
0.0
 20
0.0
 30
0.0
210
0.0
220
0.0
230
1.0
  2
SOLID
 70
     1
 71
     0
 91
     1
 92
     2
 72
     0
 73
     1
 93
     5
 10
8976659.94618332386016846
 20
7391704.53208213951438665
 10
8976660.6586280632764101
 20
7391723.07949044555425644
 10
8976693.26410691812634468
 20
7391721.83260446693748236
 10
8976692.55166217684745789
 20
7391703.26571659091860056
 10
8976659.94618332386016846
 20
7391704.53208213951438665
 97
     0
 75
     0
 76
     1
 98
     0
  0
LWPOLYLINE
  5
b2
  8
building
100
AcDbEntity
100
AcDbPolyline
  6
CONTINUOUS
420
2302755
 90
     5
 70
   129
 43
260.0
 10
8974826.58096165210008621
 20
7391954.76996373571455479
 10
8974828.68490002863109112
 20
7391964.04396096244454384
 10
8974842.62210027687251568
 20
7391960.88768335338681936
 10
8974840.5070299506187439
 20
7391951.59420672431588173
 10
8974826.58096165210008621
 20
7391954.76996373571455479
  0
HATCH
  5
b3
330
6d
100
AcDbEntity
  8
building
420
8227727
100
AcDbHatch
 10
0.0
 20
0.0
 30
0.0
210
0.0
220
0.0
230
1.0
  2
SOLID
 70
     1
 71
     0
 91
     1
 92
     2
 72
     0
 73
     1
 93
     5
 10
8974826.58096165210008621
 20
7391954.76996373571455479
 10
8974828.68490002863109112
 20
7391964.04396096244454384
 10
8974842.62210027687251568
 20
7391960.88768335338681936
 10
8974840.5070299506187439
 20
7391951.59420672431588173
 10
8974826.58096165210008621
 20
7391954.76996373571455479
 97
     0
 75
     0
 76
     1
 98
     0
  0
LWPOLYLINE
  5
b4
  8
building
100
AcDbEntity
100
AcDbPolyline
  6
CONTINUOUS
420
2302755
 90
     5
 70
   129
 43
260.0
 10
8976814.66914357617497444
 20
7391826.25999849289655685
 10
8976813.90103909000754356
 20
7391841.51508788205683231
 10
8976849.1781857218593359
 20
7391843.30751414410769939
 10
8976849.95742215774953365
 20
7391828.05242123641073704
 10
8976814.66914357617497444
 20
7391826.25999849289655685
  0
HATCH
  5
b5
330
6d
100
AcDbEntity
  8
building
420
8227727
100
AcDbHatch
 10
0.0
 20
0.0
 30
0.0
210
0.0
220
0.0
230
1.0
  2
SOLID
 70
     1
 71
     0
 91
     1
 92
     2
 72
     0
 73
     1
 93
     5
 10
8976814.66914357617497444
 20
7391826.25999849289655685
 10
8976813.90103909000754356
 20
7391841.51508788205683231
 10
8976849.1781857218593359
 20
7391843.30751414410769939
 10
8976849.95742215774953365
 20
7391828.05242123641073704
 10
8976814.66914357617497444
 20
7391826.25999849289655685
 97
     0
 75
     0
 76
     1
 98
     0
  0
LWPOLYLINE
  5
b6
  8
building
100
AcDbEntity
100
AcDbPolyline
  6
CONTINUOUS
420
2302755
 90
     5
 70
   129
 43
260.0
 10
8974855.07875129580497742
 20
7391948.69121525436639786
 10
8974856.75967560708522797
 20
7391957.18587791360914707
 10
8974872.08836948871612549
 20
7391954.14650213345885277
 10
8974870.39631322771310806
 20
7391945.65184279717504978
 10
8974855.07875129580497742
 20
7391948.69121525436639786
  0
HATCH
  5
b7
330
6d
100
AcDbEntity
  8
building
420
8227727
100
AcDbHatch
 10
0.0
 20
0.0
 30
0.0
210
0.0
220
0.0
230
1.0
  2
SOLID
 70
     1
 71
     0
 91
     1
 92
     2
 72
     0
 73
     1
 93
     5
 10
8974855.07875129580497742
 20
7391948.69121525436639786
 10
8974856.75967560708522797
 20
7391957.18587791360914707
 10
8974872.08836948871612549
 20
7391954.14650213345885277
 10
8974870.39631322771310806
 20
7391945.65184279717504978
 10
8974855.07875129580497742
 20
7391948.69121525436639786
 97
     0
 75
     0
 76
     1
 98
     0
  0
LWPOLYLINE
  5
b8
  8
building
100
AcDbEntity
100
AcDbPolyline
  6
CONTINUOUS
420
2302755
 90
     5
 70
   129
 43
260.0
 10
8975575.42717621847987175
 20
7392182.10298421699553728
 10
8975582.35124854743480682
 20
7392198.2939938073977828
 10
8975608.32208574935793877
 20
7392187.18824352417141199
 10
8975601.39801342040300369
 20
7392170.99725707061588764
 10
8975575.42717621847987175
 20
7392182.10298421699553728
  0
HATCH
  5
b9
330
6d
100
AcDbEntity
  8
building
420
8227727
100
AcDbHatch
 10
0.0
 20
0.0
 30
0.0
210
0.0
220
0.0
230
1.0
  2
SOLID
 70
     1
 71
     0
 91
     1
 92
     2
 72
     0
 73
     1
 93
     5
 10
8975575.42717621847987175
 20
7392182.10298421699553728
 10
8975582.35124854743480682
 20
7392198.2939938073977828
 10
8975608.32208574935793877
 20
7392187.18824352417141199
 10
8975601.39801342040300369
 20
7392170.99725707061588764
 10
8975575.42717621847987175
 20
7392182.10298421699553728
 97
     0
 75
     0
 76
     1
 98
     0
  0
LWPOLYLINE
  5
ba
  8
building
100
AcDbEntity
100
AcDbPolyline
  6
CONTINUOUS
420
2302755
 90
     5
 70
   129
 43
260.0
 10
8975850.085755854845047
 20
7391845.54804755188524723
 10
8975834.37857570126652718
 20
7391848.21720558498054743
 10
8975836.0928958598524332
 20
7391858.36780764907598495
 10
8975851.80007601156830788
 20
7391855.6986461291089654
 10
8975850.085755854845047
 20
7391845.54804755188524723
  0
HATCH
  5
bb
330
6d
100
AcDbEntity
  8
building
420
8227727
100
AcDbHatch
 10
0.0
 20
0.0
 30
0.0
210
0.0
220
0.0
230
1.0
  2
SOLID
 70
     1
 71
     0
 91
     1
 92
     2
 72
     0
 73
     1
 93
     5
 10
8975850.085755854845047
 20
7391845.54804755188524723
 10
8975834.37857570126652718
 20
7391848.21720558498054743
 10
8975836.0928958598524332
 20
7391858.36780764907598495
 10
8975851.80007601156830788
 20
7391855.6986461291089654
 10
8975850.085755854845047
 20
7391845.54804755188524723
 97
     0
 75
     0
 76
     1
 98
     0
  0
LWPOLYLINE
  5
bc
  8
building
100
AcDbEntity
100
AcDbPolyline
  6
CONTINUOUS
420
2302755
 90
     5
 70
   129
 43
260.0
 10
8975626.47829469665884972
 20
7392161.66456179227679968
 10
8975631.37635229155421257
 20
7392174.09516883548349142
 10
8975650.00010310113430023
 20
7392166.74980772659182549
 10
8975645.10204550623893738
 20
7392154.33869610819965601
 10
8975626.47829469665884972
 20
7392161.66456179227679968
  0
HATCH
  5
bd
330
6d
100
AcDbEntity
  8
building
420
8227727
100
AcDbHatch
 10
0.0
 20
0.0
 30
0.0
210
0.0
220
0.0
230
1.0
  2
SOLID
 70
     1
 71
     0
 91
     1
 92
     2
 72
     0
 73
     1
 93
     5
 10
8975626.47829469665884972
 20
7392161.66456179227679968
 10
8975631.37635229155421257
 20
7392174.09516883548349142
 10
8975650.00010310113430023
 20
7392166.74980772659182549
 10
8975645.10204550623893738
 20
7392154.33869610819965601
 10
8975626.47829469665884972
 20
7392161.66456179227679968
 97
     0
 75
     0
 76
     1
 98
     0
  0
LWPOLYLINE
  5
be
  8
building
100
AcDbEntity
100
AcDbPolyline
  6
CONTINUOUS
420
2302755
 90
     5
 70
   129
 43
260.0
 10
8975948.49218571558594704
 20
7391812.11545960791409016
 10
8975949.1712346076965332
 20
7391821.13600966986268759
 10
8975964.36634510196745396
 20
7391820.00600498355925083
 10
8975963.69842815585434437
 20
7391810.98545623198151588
 10
8975948.49218571558594704
 20
7391812.11545960791409016
  0
HATCH
  5
bf
330
6d
100
AcDbEntity
  8
building
420
8227727
100
AcDbHatch
 10
0.0
 20
0.0
 30
0.0
210
0.0
220
0.0
230
1.0
  2
SOLID
 70
     1
 71
     0
 91
     1
 92
     2
 72
     0
 73
     1
 93
     5
 10
8975948.49218571558594704
 20
7391812.11545960791409016
 10
8975949.1712346076965332
 20
7391821.13600966986268759
 10
8975964.36634510196745396
 20
7391820.00600498355925083
 10
8975963.69842815585434437
 20
7391810.98545623198151588
 10
8975948.49218571558594704
 20
7391812.11545960791409016
 97
     0
 75
     0
 76
     1
 98
     0
  0
LWPOLYLINE
  5
c0
  8
building
100
AcDbEntity
100
AcDbPolyline
  6
CONTINUOUS
420
2302755
 90
     5
 70
   129
 43
260.0
 10
8974864.07336615212261677
 20
7392194.5725915040820837
 10
8974866.14390868134796619
 20
7392210.62724035233259201
 10
8974903.39141030050814152
 20
7392205.8147389767691493
 10
8974901.30973582342267036
 20
7392189.76010007038712502
 10
8974864.07336615212261677
 20
7392194.5725915040820837
  0
HATCH
  5
c1
330
6d
100
AcDbEntity
  8
building
420
8227727
100
AcDbHatch
 10
0.0
 20
0.0
 30
0.0
210
0.0
220
0.0
230
1.0
  2
SOLID
 70
     1
 71
     0
 91
     1
 92
     2
 72
     0
 73
     1
 93
     5
 10
8974864.07336615212261677
 20
7392194.5725915040820837
 10
8974866.14390868134796619
 20
7392210.62724035233259201
 10
8974903.39141030050814152
 20
7392205.8147389767691493
 10
8974901.30973582342267036
 20
7392189.76010007038712502
 10
8974864.07336615212261677
 20
7392194.5725915040820837
 97
     0
 75
     0
 76
     1
 98
     0
  0
LWPOLYLINE
  5
c2
  8
building
100
AcDbEntity
100
AcDbPolyline
  6
CONTINUOUS
420
2302755
 90
     5
 70
   129
 43
260.0
 10
8975992.42998873069882393
 20
7391922.23312821332365274
 10
8975994.61185075156390667
 20
7391934.27368979342281818
 10
8976030.84634500183165073
 20
7391927.68839652091264725
 10
8976028.65335103496909142
 20
7391915.64784514531493187
 10
8975992.42998873069882393
 20
7391922.23312821332365274
  0
HATCH
  5
c3
330
6d
100
AcDbEntity
  8
building
420
8227727
100
AcDbHatch
 10
0.0
 20
0.0
 30
0.0
210
0.0
220
0.0
230
1.0
  2
SOLID
 70
     1
 71
     0
 91
     1
 92
     2
 72
     0
 73
     1
 93
     5
 10
8975992.42998873069882393
 20
7391922.23312821332365274
 10
8975994.61185075156390667
 20
7391934.27368979342281818
 10
8976030.84634500183165073
 20
7391927.68839652091264725
 10
8976028.65335103496909142
 20
7391915.64784514531493187
 10
8975992.42998873069882393
 20
7391922.23312821332365274
 97
     0
 75
     0
 76
     1
 98
     0
  0
LWPOLYLINE
  5
c4
  8
building
100
AcDbEntity
100
AcDbPolyline
  6
CONTINUOUS
420
2302755
 90
     5
 70
   129
 43
260.0
 10
8975204.27686196379363537
 20
7391927.96116003673523664
 10
8975206.93739779479801655
 20
7391948.10672045964747667
 10
8975223.7911687009036541
 20
7391945.8856406370177865
 10
8975221.13063286989927292
 20
7391925.74008597247302532
 10
8975204.27686196379363537
 20
7391927.96116003673523664
  0
HATCH
  5
c5
330
6d
100
AcDbEntity
  8
building
420
8227727
100
AcDbHatch
 10
0.0
 20
0.0
 30
0.0
210
0.0
220
0.0
230
1.0
  2
SOLID
 70
     1
 71
     0
 91
     1
 92
     2
 72
     0
 73
     1
 93
     5
 10
8975204.27686196379363537
 20
7391927.96116003673523664
 10
8975206.93739779479801655
 20
7391948.10672045964747667
 10
8975223.7911687009036541
 20
7391945.8856406370177865
 10
8975221.13063286989927292
 20
7391925.74008597247302532
 10
8975204.27686196379363537
 20
7391927.96116003673523664
 97
     0
 75
     0
 76
     1
 98
     0
  0
LWPOLYLINE
  5
c6
  8
building
100
AcDbEntity
100
AcDbPolyline
  6
CONTINUOUS
420
2302755
 90
     5
 70
   129
 43
260.0
 10
8976076.39828063733875751
 20
7391909.82240708079189062
 10
8976079.00315671972930431
 20
7391923.01245202403515577
 10
8976111.68655921705067158
 20
7391916.54406677186489105
 10
8976109.08168313279747963
 20
7391903.35403280891478062
 10
8976076.39828063733875751
 20
7391909.82240708079189062
  0
HATCH
  5
c7
330
6d
100
AcDbEntity
  8
building
420
8227727
100
AcDbHatch
 10
0.0
 20
0.0
 30
0.0
210
0.0
220
0.0
230
1.0
  2
SOLID
 70
     1
 71
     0
 91
     1
 92
     2
 72
     0
 73
     1
 93
     5
 10
8976076.39828063733875751
 20
7391909.82240708079189062
 10
8976079.00315671972930431
 20
7391923.01245202403515577
 10
8976111.68655921705067158
 20
7391916.54406677186489105
 10
8976109.08168313279747963
 20
7391903.35403280891478062
 10
8976076.39828063733875751
 20
7391909.82240708079189062
 97
     0
 75
     0
 76
     1
 98
     0
  0
LWPOLYLINE
  5
c8
  8
building
100
AcDbEntity
100
AcDbPolyline
  6
CONTINUOUS
420
2302755
 90
     5
 70
   129
 43
260.0
 10
8974821.23762609623372555
 20
7391875.9804000798612833
 10
8974824.28778014145791531
 20
7391902.67212619539350271
 10
8974847.64260930940508842
 20
7391900.00294945947825909
 10
8974844.59245526418089867
 20
7391873.33071548398584127
 10
8974821.23762609623372555
 20
7391875.9804000798612833
  0
HATCH
  5
c9
330
6d
100
AcDbEntity
  8
building
420
8227727
100
AcDbHatch
 10
0.0
 20
0.0
 30
0.0
210
0.0
220
0.0
230
1.0
  2
SOLID
 70
     1
 71
     0
 91
     1
 92
     2
 72
     0
 73
     1
 93
     5
 10
8974821.23762609623372555
 20
7391875.9804000798612833
 10
8974824.28778014145791531
 20
7391902.67212619539350271
 10
8974847.64260930940508842
 20
7391900.00294945947825909
 10
8974844.59245526418089867
 20
7391873.33071548398584127
 10
8974821.23762609623372555
 20
7391875.9804000798612833
 97
     0
 75
     0
 76
     1
 98
     0
  0
LWPOLYLINE
  5
ca
  8
building
100
AcDbEntity
100
AcDbPolyline
  6
CONTINUOUS
420
2302755
 90
     5
 70
   129
 43
260.0
 10
8976076.16450970433652401
 20
7392415.32692045532166958
 10
8976119.8685417901724577
 20
7392528.88242813386023045
 10
8976149.73556116968393326
 20
7392517.3865136755630374
 10
8976106.02039713598787785
 20
7392403.83117397502064705
 10
8976076.16450970433652401
 20
7392415.32692045532166958
  0
HATCH
  5
cb
330
6d
100
AcDbEntity
  8
building
420
8227727
100
AcDbHatch
 10
0.0
 20
0.0
 30
0.0
210
0.0
220
0.0
230
1.0
  2
SOLID
 70
     1
 71
     0
 91
     1
 92
     2
 72
     0
 73
     1
 93
     5
 10
8976076.16450970433652401
 20
7392415.32692045532166958
 10
8976119.8685417901724577
 20
7392528.88242813386023045
 10
8976149.73556116968393326
 20
7392517.3865136755630374
 10
8976106.02039713598787785
 20
7392403.83117397502064705
 10
8976076.16450970433652401
 20
7392415.32692045532166958
 97
     0
 75
     0
 76
     1
 98
     0
  0
LWPOLYLINE
  5
cc
  8
building
100
AcDbEntity
100
AcDbPolyline
  6
CONTINUOUS
420
2302755
 90
     5
 70
   129
 43
260.0
 10
8974990.29853676073253155
 20
7392258.1094480911269784
 10
8974992.71416971273720264
 20
7392273.81351662520319223
 10
8975026.38831567764282227
 20
7392268.61129685956984758
 10
8975023.97268272750079632
 20
7392252.90723883733153343
 10
8974990.29853676073253155
 20
7392258.1094480911269784
  0
HATCH
  5
cd
330
6d
100
AcDbEntity
  8
building
420
8227727
100
AcDbHatch
 10
0.0
 20
0.0
 30
0.0
210
0.0
220
0.0
230
1.0
  2
SOLID
 70
     1
 71
     0
 91
     1
 92
     2
 72
     0
 73
     1
 93
     5
 10
8974990.29853676073253155
 20
7392258.1094480911269784
 10
8974992.71416971273720264
 20
7392273.81351662520319223
 10
8975026.38831567764282227
 20
7392268.61129685956984758
 10
8975023.97268272750079632
 20
7392252.90723883733153343
 10
8974990.29853676073253155
 20
7392258.1094480911269784
 97
     0
 75
     0
 76
     1
 98
     0
  0
LWPOLYLINE
  5
ce
  8
building
100
AcDbEntity
100
AcDbPolyline
  6
CONTINUOUS
420
2302755
 90
     5
 70
   129
 43
260.0
 10
8977201.89399230107665062
 20
7391851.21757410652935505
 10
8977200.91438078135251999
 20
7391874.16848330851644278
 10
8977221.82018115371465683
 20
7391875.06470015272498131
 10
8977222.78866072185337543
 20
7391852.11378830391913652
 10
8977201.89399230107665062
 20
7391851.21757410652935505
  0
HATCH
  5
cf
330
6d
100
AcDbEntity
  8
building
420
8227727
100
AcDbHatch
 10
0.0
 20
0.0
 30
0.0
210
0.0
220
0.0
230
1.0
  2
SOLID
 70
     1
 71
     0
 91
     1
 92
     2
 72
     0
 73
     1
 93
     5
 10
8977201.89399230107665062
 20
7391851.21757410652935505
 10
8977200.91438078135251999
 20
7391874.16848330851644278
 10
8977221.82018115371465683
 20
7391875.06470015272498131
 10
8977222.78866072185337543
 20
7391852.11378830391913652
 10
8977201.89399230107665062
 20
7391851.21757410652935505
 97
     0
 75
     0
 76
     1
 98
     0
  0
LWPOLYLINE
  5
d0
  8
building
100
AcDbEntity
100
AcDbPolyline
  6
CONTINUOUS
420
2302755
 90
     5
 70
   129
 43
260.0
 10
8974401.16239563748240471
 20
7392572.62551234476268291
 10
8974348.497144540771842
 20
7392591.07756869588047266
 10
8974356.10026576370000839
 20
7392612.76414922252297401
 10
8974408.76551685854792595
 20
7392594.33152615744620562
 10
8974401.16239563748240471
 20
7392572.62551234476268291
  0
HATCH
  5
d1
330
6d
100
AcDbEntity
  8
building
420
8227727
100
AcDbHatch
 10
0.0
 20
0.0
 30
0.0
210
0.0
220
0.0
230
1.0
  2
SOLID
 70
     1
 71
     0
 91
     1
 92
     2
 72
     0
 73
     1
 93
     5
 10
8974401.16239563748240471
 20
7392572.62551234476268291
 10
8974348.497144540771842
 20
7392591.07756869588047266
 10
8974356.10026576370000839
 20
7392612.76414922252297401
 10
8974408.76551685854792595
 20
7392594.33152615744620562
 10
8974401.16239563748240471
 20
7392572.62551234476268291
 97
     0
 75
     0
 76
     1
 98
     0
  0
LWPOLYLINE
  5
d2
  8
building
100
AcDbEntity
100
AcDbPolyline
  6
CONTINUOUS
420
2302755
 90
     5
 70
   129
 43
260.0
 10
8977166.04911626502871513
 20
7391744.06227358523756266
 10
8977167.01759583503007889
 20
7391764.16839191690087318
 10
8977182.72477598674595356
 20
7391763.40856673195958138
 10
8977181.75629641488194466
 20
7391743.30245036724954844
 10
8977166.04911626502871513
 20
7391744.06227358523756266
  0
HATCH
  5
d3
330
6d
100
AcDbEntity
  8
building
420
8227727
100
AcDbHatch
 10
0.0
 20
0.0
 30
0.0
210
0.0
220
0.0
230
1.0
  2
SOLID
 70
     1
 71
     0
 91
     1
 92
     2
 72
     0
 73
     1
 93
     5
 10
8977166.04911626502871513
 20
7391744.06227358523756266
 10
8977167.01759583503007889
 20
7391764.16839191690087318
 10
8977182.72477598674595356
 20
7391763.40856673195958138
 10
8977181.75629641488194466
 20
7391743.30245036724954844
 10
8977166.04911626502871513
 20
7391744.06227358523756266
 97
     0
 75
     0
 76
     1
 98
     0
  0
LWPOLYLINE
  5
d4
  8
building
100
AcDbEntity
100
AcDbPolyline
  6
CONTINUOUS
420
2302755
 90
     5
 70
   129
 43
260.0
 10
8974707.992308109998703
 20
7392293.94048957154154778
 10
8974710.01832284405827522
 20
7392308.84578386601060629
 10
8974745.66282379440963268
 20
7392304.01373761706054211
 10
8974743.63680906221270561
 20
7392289.08896857593208551
 10
8974707.992308109998703
 20
7392293.94048957154154778
  0
HATCH
  5
d5
330
6d
100
AcDbEntity
  8
building
420
8227727
100
AcDbHatch
 10
0.0
 20
0.0
 30
0.0
210
0.0
220
0.0
230
1.0
  2
SOLID
 70
     1
 71
     0
 91
     1
 92
     2
 72
     0
 73
     1
 93
     5
 10
8974707.992308109998703
 20
7392293.94048957154154778
 10
8974710.01832284405827522
 20
7392308.84578386601060629
 10
8974745.66282379440963268
 20
7392304.01373761706054211
 10
8974743.63680906221270561
 20
7392289.08896857593208551
 10
8974707.992308109998703
 20
7392293.94048957154154778
 97
     0
 75
     0
 76
     1
 98
     0
  0
LWPOLYLINE
  5
d6
  8
building
100
AcDbEntity
100
AcDbPolyline
  6
CONTINUOUS
420
2302755
 90
     5
 70
   129
 43
260.0
 10
8974945.13621934689581394
 20
7391945.14528083615005016
 10
8974946.90619925037026405
 20
7391982.24129020608961582
 10
8974985.37821526825428009
 20
7391980.4098654193803668
 10
8974983.60823536477982998
 20
7391943.2943816464394331
 10
8974945.13621934689581394
 20
7391945.14528083615005016
  0
HATCH
  5
d7
330
6d
100
AcDbEntity
  8
building
420
8227727
100
AcDbHatch
 10
0.0
 20
0.0
 30
0.0
210
0.0
220
0.0
230
1.0
  2
SOLID
 70
     1
 71
     0
 91
     1
 92
     2
 72
     0
 73
     1
 93
     5
 10
8974945.13621934689581394
 20
7391945.14528083615005016
 10
8974946.90619925037026405
 20
7391982.24129020608961582
 10
8974985.37821526825428009
 20
7391980.4098654193803668
 10
8974983.60823536477982998
 20
7391943.2943816464394331
 10
8974945.13621934689581394
 20
7391945.14528083615005016
 97
     0
 75
     0
 76
     1
 98
     0
  0
LWPOLYLINE
  5
d8
  8
building
100
AcDbEntity
100
AcDbPolyline
  6
CONTINUOUS
420
2302755
 90
     5
 70
   129
 43
260.0
 10
8975351.95329845137894154
 20
7392371.93543761316686869
 10
8975361.58243440464138985
 20
7392460.10204088687896729
 10
8975382.23219994641840458
 20
7392457.84184585884213448
 10
8975372.60306399129331112
 20
7392369.69475244171917439
 10
8975351.95329845137894154
 20
7392371.93543761316686869
  0
HATCH
  5
d9
330
6d
100
AcDbEntity
  8
building
420
8227727
100
AcDbHatch
 10
0.0
 20
0.0
 30
0.0
210
0.0
220
0.0
230
1.0
  2
SOLID
 70
     1
 71
     0
 91
     1
 92
     2
 72
     0
 73
     1
 93
     5
 10
8975351.95329845137894154
 20
7392371.93543761316686869
 10
8975361.58243440464138985
 20
7392460.10204088687896729
 10
8975382.23219994641840458
 20
7392457.84184585884213448
 10
8975372.60306399129331112
 20
7392369.69475244171917439
 10
8975351.95329845137894154
 20
7392371.93543761316686869
 97
     0
 75
     0
 76
     1
 98
     0
  0
LWPOLYLINE
  5
da
  8
building
100
AcDbEntity
100
AcDbPolyline
  6
CONTINUOUS
420
2302755
 90
     5
 70
   129
 43
260.0
 10
8976370.637958699837327
 20
7391712.36407058499753475
 10
8976371.06097276508808136
 20
7391731.51545865926891565
 10
8976393.4807182103395462
 20
7391731.0089106597006321
 10
8976393.04657219722867012
 20
7391711.85752382967621088
 10
8976370.637958699837327
 20
7391712.36407058499753475
  0
HATCH
  5
db
330
6d
100
AcDbEntity
  8
building
420
8227727
100
AcDbHatch
 10
0.0
 20
0.0
 30
0.0
210
0.0
220
0.0
230
1.0
  2
SOLID
 70
     1
 71
     0
 91
     1
 92
     2
 72
     0
 73
     1
 93
     5
 10
8976370.637958699837327
 20
7391712.36407058499753475
 10
8976371.06097276508808136
 20
7391731.51545865926891565
 10
8976393.4807182103395462
 20
7391731.0089106597006321
 10
8976393.04657219722867012
 20
7391711.85752382967621088
 10
8976370.637958699837327
 20
7391712.36407058499753475
 97
     0
 75
     0
 76
     1
 98
     0
  0
LWPOLYLINE
  5
dc
  8
building
100
AcDbEntity
100
AcDbPolyline
  6
CONTINUOUS
420
2302755
 90
     5
 70
   129
 43
260.0
 10
8974741.71098187007009983
 20
7391970.22013752441853285
 10
8974722.84232818149030209
 20
7391973.00623770616948605
 10
8974725.16890553943812847
 20
7391988.80714644119143486
 10
8974744.04869117774069309
 20
7391986.02104059513658285
 10
8974741.71098187007009983
 20
7391970.22013752441853285
  0
HATCH
  5
dd
330
6d
100
AcDbEntity
  8
building
420
8227727
100
AcDbHatch
 10
0.0
 20
0.0
 30
0.0
210
0.0
220
0.0
230
1.0
  2
SOLID
 70
     1
 71
     0
 91
     1
 92
     2
 72
     0
 73
     1
 93
     5
 10
8974741.71098187007009983
 20
7391970.22013752441853285
 10
8974722.84232818149030209
 20
7391973.00623770616948605
 10
8974725.16890553943812847
 20
7391988.80714644119143486
 10
8974744.04869117774069309
 20
7391986.02104059513658285
 10
8974741.71098187007009983
 20
7391970.22013752441853285
 97
     0
 75
     0
 76
     1
 98
     0
  0
LWPOLYLINE
  5
de
  8
building
100
AcDbEntity
100
AcDbPolyline
  6
CONTINUOUS
420
2302755
 90
     5
 70
   129
 43
260.0
 10
8976581.86669247969985008
 20
7391699.19386568386107683
 10
8976582.36763018928468227
 20
7391725.08619799185544252
 10
8976615.55197039432823658
 20
7391724.44327221717685461
 10
8976615.05103268660604954
 20
7391698.57042458467185497
 10
8976581.86669247969985008
 20
7391699.19386568386107683
  0
HATCH
  5
df
330
6d
100
AcDbEntity
  8
building
420
8227727
100
AcDbHatch
 10
0.0
 20
0.0
 30
0.0
210
0.0
220
0.0
230
1.0
  2
SOLID
 70
     1
 71
     0
 91
     1
 92
     2
 72
     0
 73
     1
 93
     5
 10
8976581.86669247969985008
 20
7391699.19386568386107683
 10
8976582.36763018928468227
 20
7391725.08619799185544252
 10
8976615.55197039432823658
 20
7391724.44327221717685461
 10
8976615.05103268660604954
 20
7391698.57042458467185497
 10
8976581.86669247969985008
 20
7391699.19386568386107683
 97
     0
 75
     0
 76
     1
 98
     0
  0
LWPOLYLINE
  5
e0
  8
building
100
AcDbEntity
100
AcDbPolyline
  6
CONTINUOUS
420
2302755
 90
     5
 70
   129
 43
260.0
 10
8975862.28637204505503178
 20
7392446.13170799892395735
 10
8975872.67248053476214409
 20
7392475.51425037998706102
 10
8975891.47434252873063087
 20
7392468.85056060273200274
 10
8975881.08823403716087341
 20
7392439.48752780817449093
 10
8975862.28637204505503178
 20
7392446.13170799892395735
  0
HATCH
  5
e1
330
6d
100
AcDbEntity
  8
building
420
8227727
100
AcDbHatch
 10
0.0
 20
0.0
 30
0.0
210
0.0
220
0.0
230
1.0
  2
SOLID
 70
     1
 71
     0
 91
     1
 92
     2
 72
     0
 73
     1
 93
     5
 10
8975862.28637204505503178
 20
7392446.13170799892395735
 10
8975872.67248053476214409
 20
7392475.51425037998706102
 10
8975891.47434252873063087
 20
7392468.85056060273200274
 10
8975881.08823403716087341
 20
7392439.48752780817449093
 10
8975862.28637204505503178
 20
7392446.13170799892395735
 97
     0
 75
     0
 76
     1
 98
     0
  0
LWPOLYLINE
  5
e2
  8
building
100
AcDbEntity
100
AcDbPolyline
  6
CONTINUOUS
420
2302755
 90
     5
 70
   129
 43
260.0
 10
8975859.78168350271880627
 20
7392562.92212541960179806
 10
8975898.10898418165743351
 20
7392662.15833884663879871
 10
8975916.7438669390976429
 20
7392654.96839586365967989
 10
8975878.40543431229889393
 20
7392555.73227424919605255
 10
8975859.78168350271880627
 20
7392562.92212541960179806
  0
HATCH
  5
e3
330
6d
100
AcDbEntity
  8
building
420
8227727
100
AcDbHatch
 10
0.0
 20
0.0
 30
0.0
210
0.0
220
0.0
230
1.0
  2
SOLID
 70
     1
 71
     0
 91
     1
 92
     2
 72
     0
 73
     1
 93
     5
 10
8975859.78168350271880627
 20
7392562.92212541960179806
 10
8975898.10898418165743351
 20
7392662.15833884663879871
 10
8975916.7438669390976429
 20
7392654.96839586365967989
 10
8975878.40543431229889393
 20
7392555.73227424919605255
 10
8975859.78168350271880627
 20
7392562.92212541960179806
 97
     0
 75
     0
 76
     1
 98
     0
  0
LWPOLYLINE
  5
e4
  8
building
100
AcDbEntity
100
AcDbPolyline
  6
CONTINUOUS
420
2302755
 90
     5
 70
   129
 43
260.0
 10
8974542.8609754666686058
 20
7392259.94093832094222307
 10
8974557.05421054363250732
 20
7392285.77668690402060747
 10
8974569.91161173023283482
 20
7392278.70399606134742498
 10
8974555.7183766532689333
 20
7392252.86827099043875933
 10
8974542.8609754666686058
 20
7392259.94093832094222307
  0
HATCH
  5
e5
330
6d
100
AcDbEntity
  8
building
420
8227727
100
AcDbHatch
 10
0.0
 20
0.0
 30
0.0
210
0.0
220
0.0
230
1.0
  2
SOLID
 70
     1
 71
     0
 91
     1
 92
     2
 72
     0
 73
     1
 93
     5
 10
8974542.8609754666686058
 20
7392259.94093832094222307
 10
8974557.05421054363250732
 20
7392285.77668690402060747
 10
8974569.91161173023283482
 20
7392278.70399606134742498
 10
8974555.7183766532689333
 20
7392252.86827099043875933
 10
8974542.8609754666686058
 20
7392259.94093832094222307
 97
     0
 75
     0
 76
     1
 98
     0
  0
LWPOLYLINE
  5
e6
  8
building
100
AcDbEntity
100
AcDbPolyline
  6
CONTINUOUS
420
2302755
 90
     5
 70
   129
 43
260.0
 10
8974503.8546258956193924
 20
7392189.25352219957858324
 10
8974521.83272365666925907
 20
7392223.44760269019752741
 10
8974535.85897949710488319
 20
7392216.08271110244095325
 10
8974517.88088173419237137
 20
7392181.88866301625967026
 10
8974503.8546258956193924
 20
7392189.25352219957858324
  0
HATCH
  5
e7
330
6d
100
AcDbEntity
  8
building
420
8227727
100
AcDbHatch
 10
0.0
 20
0.0
 30
0.0
210
0.0
220
0.0
230
1.0
  2
SOLID
 70
     1
 71
     0
 91
     1
 92
     2
 72
     0
 73
     1
 93
     5
 10
8974503.8546258956193924
 20
7392189.25352219957858324
 10
8974521.83272365666925907
 20
7392223.44760269019752741
 10
8974535.85897949710488319
 20
7392216.08271110244095325
 10
8974517.88088173419237137
 20
7392181.88866301625967026
 10
8974503.8546258956193924
 20
7392189.25352219957858324
 97
     0
 75
     0
 76
     1
 98
     0
  0
LWPOLYLINE
  5
e8
  8
building
100
AcDbEntity
100
AcDbPolyline
  6
CONTINUOUS
420
2302755
 90
     5
 70
   129
 43
260.0
 10
8976688.73340364173054695
 20
7392629.01451068371534348
 10
8976786.53870825469493866
 20
7392709.19514892622828484
 10
8976804.50567406788468361
 20
7392687.27447914704680443
 10
8976706.68923750706017017
 20
7392607.11355188023298979
 10
8976688.73340364173054695
 20
7392629.01451068371534348
  0
HATCH
  5
e9
330
6d
100
AcDbEntity
  8
building
420
8227727
100
AcDbHatch
 10
0.0
 20
0.0
 30
0.0
210
0.0
220
0.0
230
1.0
  2
SOLID
 70
     1
 71
     0
 91
     1
 92
     2
 72
     0
 73
     1
 93
     5
 10
8976688.73340364173054695
 20
7392629.01451068371534348
 10
8976786.53870825469493866
 20
7392709.19514892622828484
 10
8976804.50567406788468361
 20
7392687.27447914704680443
 10
8976706.68923750706017017
 20
7392607.11355188023298979
 10
8976688.73340364173054695
 20
7392629.01451068371534348
 97
     0
 75
     0
 76
     1
 98
     0
  0
LWPOLYLINE
  5
ea
  8
building
100
AcDbEntity
100
AcDbPolyline
  6
CONTINUOUS
420
2302755
 90
     5
 70
   129
 43
260.0
 10
8976868.52551322244107723
 20
7391668.97651245538145304
 10
8976869.48286084271967411
 20
7391682.10770116467028856
 10
8976885.19004099443554878
 20
7391680.97771669458597898
 10
8976884.2326933741569519
 20
7391667.84652989450842142
 10
8976868.52551322244107723
 20
7391668.97651245538145304
  0
HATCH
  5
eb
330
6d
100
AcDbEntity
  8
building
420
8227727
100
AcDbHatch
 10
0.0
 20
0.0
 30
0.0
210
0.0
220
0.0
230
1.0
  2
SOLID
 70
     1
 71
     0
 91
     1
 92
     2
 72
     0
 73
     1
 93
     5
 10
8976868.52551322244107723
 20
7391668.97651245538145304
 10
8976869.48286084271967411
 20
7391682.10770116467028856
 10
8976885.19004099443554878
 20
7391680.97771669458597898
 10
8976884.2326933741569519
 20
7391667.84652989450842142
 10
8976868.52551322244107723
 20
7391668.97651245538145304
 97
     0
 75
     0
 76
     1
 98
     0
  0
LWPOLYLINE
  5
ec
  8
building
100
AcDbEntity
100
AcDbPolyline
  6
CONTINUOUS
420
2302755
 90
     5
 70
   129
 43
260.0
 10
8974761.04717742279171944
 20
7391883.15013940446078777
 10
8974765.17713053151965141
 20
7391912.53055332880467176
 10
8974789.40025172755122185
 20
7391909.12101684045046568
 10
8974785.2814305666834116
 20
7391879.76009879168123007
 10
8974761.04717742279171944
 20
7391883.15013940446078777
  0
HATCH
  5
ed
330
6d
100
AcDbEntity
  8
building
420
8227727
100
AcDbHatch
 10
0.0
 20
0.0
 30
0.0
210
0.0
220
0.0
230
1.0
  2
SOLID
 70
     1
 71
     0
 91
     1
 92
     2
 72
     0
 73
     1
 93
     5
 10
8974761.04717742279171944
 20
7391883.15013940446078777
 10
8974765.17713053151965141
 20
7391912.53055332880467176
 10
8974789.40025172755122185
 20
7391909.12101684045046568
 10
8974785.2814305666834116
 20
7391879.76009879168123007
 10
8974761.04717742279171944
 20
7391883.15013940446078777
 97
     0
 75
     0
 76
     1
 98
     0
  0
LWPOLYLINE
  5
ee
  8
building
100
AcDbEntity
100
AcDbPolyline
  6
CONTINUOUS
420
2302755
 90
     5
 70
   129
 43
260.0
 10
8974446.65867152437567711
 20
7392559.55127295851707458
 10
8974452.78124351799488068
 20
7392582.46530463173985481
 10
8974581.5667624156922102
 20
7392548.07479779422283173
 10
8974575.45532237179577351
 20
7392525.16086752433329821
 10
8974446.65867152437567711
 20
7392559.55127295851707458
  0
HATCH
  5
ef
330
6d
100
AcDbEntity
  8
building
420
8227727
100
AcDbHatch
 10
0.0
 20
0.0
 30
0.0
210
0.0
220
0.0
230
1.0
  2
SOLID
 70
     1
 71
     0
 91
     1
 92
     2
 72
     0
 73
     1
 93
     5
 10
8974446.65867152437567711
 20
7392559.55127295851707458
 10
8974452.78124351799488068
 20
7392582.46530463173985481
 10
8974581.5667624156922102
 20
7392548.07479779422283173
 10
8974575.45532237179577351
 20
7392525.16086752433329821
 10
8974446.65867152437567711
 20
7392559.55127295851707458
 97
     0
 75
     0
 76
     1
 98
     0
  0
LWPOLYLINE
  5
f0
  8
building
100
AcDbEntity
100
AcDbPolyline
  6
CONTINUOUS
420
2302755
 90
     5
 70
   129
 43
260.0
 10
8977129.05764947459101677
 20
7391724.93033719249069691
 10
8977128.12256575189530849
 20
7391738.39282520208507776
 10
8977142.5607037078589201
 20
7391739.40592220611870289
 10
8977143.50691938027739525
 20
7391725.94343244004994631
 10
8977129.05764947459101677
 20
7391724.93033719249069691
  0
HATCH
  5
f1
330
6d
100
AcDbEntity
  8
building
420
8227727
100
AcDbHatch
 10
0.0
 20
0.0
 30
0.0
210
0.0
220
0.0
230
1.0
  2
SOLID
 70
     1
 71
     0
 91
     1
 92
     2
 72
     0
 73
     1
 93
     5
 10
8977129.05764947459101677
 20
7391724.93033719249069691
 10
8977128.12256575189530849
 20
7391738.39282520208507776
 10
8977142.5607037078589201
 20
7391739.40592220611870289
 10
8977143.50691938027739525
 20
7391725.94343244004994631
 10
8977129.05764947459101677
 20
7391724.93033719249069691
 97
     0
 75
     0
 76
     1
 98
     0
  0
LWPOLYLINE
  5
f2
  8
building
100
AcDbEntity
100
AcDbPolyline
  6
CONTINUOUS
420
2302755
 90
     5
 70
   129
 43
260.0
 10
8975062.61167798191308975
 20
7391857.19883168861269951
 10
8975063.64694924652576447
 20
7391876.03884901572018862
 10
8975089.79589763283729553
 20
7391874.61659171804785728
 10
8975088.76062636822462082
 20
7391855.77657783962786198
 10
8975062.61167798191308975
 20
7391857.19883168861269951
  0
HATCH
  5
f3
330
6d
100
AcDbEntity
  8
building
420
8227727
100
AcDbHatch
 10
0.0
 20
0.0
 30
0.0
210
0.0
220
0.0
230
1.0
  2
SOLID
 70
     1
 71
     0
 91
     1
 92
     2
 72
     0
 73
     1
 93
     5
 10
8975062.61167798191308975
 20
7391857.19883168861269951
 10
8975063.64694924652576447
 20
7391876.03884901572018862
 10
8975089.79589763283729553
 20
7391874.61659171804785728
 10
8975088.76062636822462082
 20
7391855.77657783962786198
 10
8975062.61167798191308975
 20
7391857.19883168861269951
 97
     0
 75
     0
 76
     1
 98
     0
  0
LWPOLYLINE
  5
f4
  8
building
100
AcDbEntity
100
AcDbPolyline
  6
CONTINUOUS
420
2302755
 90
     5
 70
   129
 43
260.0
 10
8975844.60883690603077412
 20
7391941.85262889694422483
 10
8975847.03560180589556694
 20
7391956.07533662579953671
 10
8975881.23294937610626221
 20
7391950.24986825976520777
 10
8975878.80618447810411453
 20
7391936.02717119082808495
 10
8975844.60883690603077412
 20
7391941.85262889694422483
  0
HATCH
  5
f5
330
6d
100
AcDbEntity
  8
building
420
8227727
100
AcDbHatch
 10
0.0
 20
0.0
 30
0.0
210
0.0
220
0.0
230
1.0
  2
SOLID
 70
     1
 71
     0
 91
     1
 92
     2
 72
     0
 73
     1
 93
     5
 10
8975844.60883690603077412
 20
7391941.85262889694422483
 10
8975847.03560180589556694
 20
7391956.07533662579953671
 10
8975881.23294937610626221
 20
7391950.24986825976520777
 10
8975878.80618447810411453
 20
7391936.02717119082808495
 10
8975844.60883690603077412
 20
7391941.85262889694422483
 97
     0
 75
     0
 76
     1
 98
     0
  0
LWPOLYLINE
  5
f6
  8
building
100
AcDbEntity
100
AcDbPolyline
  6
CONTINUOUS
420
2302755
 90
     5
 70
   129
 43
260.0
 10
8974797.55997040309011936
 20
7392285.87410693429410458
 10
8974765.48882510513067245
 20
7392287.66663568560034037
 10
8974766.27919348888099194
 20
7392301.7535879835486412
 10
8974798.33920683711767197
 20
7392299.96105598192662001
 10
8974797.55997040309011936
 20
7392285.87410693429410458
  0
HATCH
  5
f7
330
6d
100
AcDbEntity
  8
building
420
8227727
100
AcDbHatch
 10
0.0
 20
0.0
 30
0.0
210
0.0
220
0.0
230
1.0
  2
SOLID
 70
     1
 71
     0
 91
     1
 92
     2
 72
     0
 73
     1
 93
     5
 10
8974797.55997040309011936
 20
7392285.87410693429410458
 10
8974765.48882510513067245
 20
7392287.66663568560034037
 10
8974766.27919348888099194
 20
7392301.7535879835486412
 10
8974798.33920683711767197
 20
7392299.96105598192662001
 10
8974797.55997040309011936
 20
7392285.87410693429410458
 97
     0
 75
     0
 76
     1
 98
     0
  0
LWPOLYLINE
  5
f8
  8
building
100
AcDbEntity
100
AcDbPolyline
  6
CONTINUOUS
420
2302755
 90
     5
 70
   129
 43
260.0
 10
8974823.70891878940165043
 20
7392295.36282361019402742
 10
8974854.52215384319424629
 20
7392291.95311915781348944
 10
8974852.96368096955120564
 20
7392277.84670063853263855
 10
8974822.15044591948390007
 20
7392281.25639890227466822
 10
8974823.70891878940165043
 20
7392295.36282361019402742
  0
HATCH
  5
f9
330
6d
100
AcDbEntity
  8
building
420
8227727
100
AcDbHatch
 10
0.0
 20
0.0
 30
0.0
210
0.0
220
0.0
230
1.0
  2
SOLID
 70
     1
 71
     0
 91
     1
 92
     2
 72
     0
 73
     1
 93
     5
 10
8974823.70891878940165043
 20
7392295.36282361019402742
 10
8974854.52215384319424629
 20
7392291.95311915781348944
 10
8974852.96368096955120564
 20
7392277.84670063853263855
 10
8974822.15044591948390007
 20
7392281.25639890227466822
 10
8974823.70891878940165043
 20
7392295.36282361019402742
 97
     0
 75
     0
 76
     1
 98
     0
  0
LWPOLYLINE
  5
fa
  8
building
100
AcDbEntity
100
AcDbPolyline
  6
CONTINUOUS
420
2302755
 90
     5
 70
   129
 43
260.0
 10
8976884.71136718429625034
 20
7391831.46192216221243143
 10
8976884.06571413762867451
 20
7391847.22357730474323034
 10
8976919.17588153295218945
 20
7391848.66531249787658453
 10
8976919.82153457961976528
 20
7391832.88417156040668488
 10
8976884.71136718429625034
 20
7391831.46192216221243143
  0
HATCH
  5
fb
330
6d
100
AcDbEntity
  8
building
420
8227727
100
AcDbHatch
 10
0.0
 20
0.0
 30
0.0
210
0.0
220
0.0
230
1.0
  2
SOLID
 70
     1
 71
     0
 91
     1
 92
     2
 72
     0
 73
     1
 93
     5
 10
8976884.71136718429625034
 20
7391831.46192216221243143
 10
8976884.06571413762867451
 20
7391847.22357730474323034
 10
8976919.17588153295218945
 20
7391848.66531249787658453
 10
8976919.82153457961976528
 20
7391832.88417156040668488
 10
8976884.71136718429625034
 20
7391831.46192216221243143
 97
     0
 75
     0
 76
     1
 98
     0
  0
LWPOLYLINE
  5
fc
  8
building
100
AcDbEntity
100
AcDbPolyline
  6
CONTINUOUS
420
2302755
 90
     5
 70
   129
 43
260.0
 10
8975696.15316398441791534
 20
7391959.3679945906624198
 10
8975698.63558862917125225
 20
7391981.59834315627813339
 10
8975751.6570620946586132
 20
7391975.69492274429649115
 10
8975749.17463744804263115
 20
7391953.4645910644903779
 10
8975696.15316398441791534
 20
7391959.3679945906624198
  0
HATCH
  5
fd
330
6d
100
AcDbEntity
  8
building
420
8227727
100
AcDbHatch
 10
0.0
 20
0.0
 30
0.0
210
0.0
220
0.0
230
1.0
  2
SOLID
 70
     1
 71
     0
 91
     1
 92
     2
 72
     0
 73
     1
 93
     5
 10
8975696.15316398441791534
 20
7391959.3679945906624198
 10
8975698.63558862917125225
 20
7391981.59834315627813339
 10
8975751.6570620946586132
 20
7391975.69492274429649115
 10
8975749.17463744804263115
 20
7391953.4645910644903779
 10
8975696.15316398441791534
 20
7391959.3679945906624198
 97
     0
 75
     0
 76
     1
 98
     0
  0
LWPOLYLINE
  5
fe
  8
building
100
AcDbEntity
100
AcDbPolyline
  6
CONTINUOUS
420
2302755
 90
     5
 70
   129
 43
260.0
 10
8974691.68400271050632
 20
7391983.39080172777175903
 10
8974695.30188615992665291
 20
7391997.74996845796704292
 10
8974711.38755257986485958
 20
7391993.69744653068482876
 10
8974707.76966912858188152
 20
7391979.3382872873917222
 10
8974691.68400271050632
 20
7391983.39080172777175903
  0
HATCH
  5
ff
330
6d
100
AcDbEntity
  8
building
420
8227727
100
AcDbHatch
 10
0.0
 20
0.0
 30
0.0
210
0.0
220
0.0
230
1.0
  2
SOLID
 70
     1
 71
     0
 91
     1
 92
     2
 72
     0
 73
     1
 93
     5
 10
8974691.68400271050632
 20
7391983.39080172777175903
 10
8974695.30188615992665291
 20
7391997.74996845796704292
 10
8974711.38755257986485958
 20
7391993.69744653068482876
 10
8974707.76966912858188152
 20
7391979.3382872873917222
 10
8974691.68400271050632
 20
7391983.39080172777175903
 97
     0
 75
     0
 76
     1
 98
     0
  0
LWPOLYLINE
  5
100
  8
building
100
AcDbEntity
100
AcDbPolyline
  6
CONTINUOUS
420
2302755
 90
     5
 70
   129
 43
260.0
 10
8976509.5424193125218153
 20
7391705.01914586685597897
 10
8976510.92278099805116653
 20
7391728.32031026855111122
 10
8976534.47798524983227253
 20
7391726.93704521469771862
 10
8976533.10875551402568817
 20
7391703.63588496204465628
 10
8976509.5424193125218153
 20
7391705.01914586685597897
  0
HATCH
  5
101
330
6d
100
AcDbEntity
  8
building
420
8227727
100
AcDbHatch
 10
0.0
 20
0.0
 30
0.0
210
0.0
220
0.0
230
1.0
  2
SOLID
 70
     1
 71
     0
 91
     1
 92
     2
 72
     0
 73
     1
 93
     5
 10
8976509.5424193125218153
 20
7391705.01914586685597897
 10
8976510.92278099805116653
 20
7391728.32031026855111122
 10
8976534.47798524983227253
 20
7391726.93704521469771862
 10
8976533.10875551402568817
 20
7391703.63588496204465628
 10
8976509.5424193125218153
 20
7391705.01914586685597897
 97
     0
 75
     0
 76
     1
 98
     0
  0
LWPOLYLINE
  5
102
  8
building
100
AcDbEntity
100
AcDbPolyline
  6
CONTINUOUS
420
2302755
 90
     5
 70
   129
 43
260.0
 10
8974776.54285054095089436
 20
7391965.9143483005464077
 10
8974780.2163937371224165
 20
7391982.74785458203405142
 10
8974795.85678219422698021
 20
7391979.3382872873917222
 10
8974792.19437094777822495
 20
7391962.50478838849812746
 10
8974776.54285054095089436
 20
7391965.9143483005464077
  0
HATCH
  5
103
330
6d
100
AcDbEntity
  8
building
420
8227727
100
AcDbHatch
 10
0.0
 20
0.0
 30
0.0
210
0.0
220
0.0
230
1.0
  2
SOLID
 70
     1
 71
     0
 91
     1
 92
     2
 72
     0
 73
     1
 93
     5
 10
8974776.54285054095089436
 20
7391965.9143483005464077
 10
8974780.2163937371224165
 20
7391982.74785458203405142
 10
8974795.85678219422698021
 20
7391979.3382872873917222
 10
8974792.19437094777822495
 20
7391962.50478838849812746
 10
8974776.54285054095089436
 20
7391965.9143483005464077
 97
     0
 75
     0
 76
     1
 98
     0
  0
LWPOLYLINE
  5
104
  8
building
100
AcDbEntity
100
AcDbPolyline
  6
CONTINUOUS
420
2302755
 90
     5
 70
   129
 43
260.0
 10
8976619.57060401141643524
 20
7392623.18853785935789347
 10
8976651.59722151234745979
 20
7392649.43467733915895224
 10
8976660.87013509683310986
 20
7392638.13343343883752823
 10
8976628.84351759403944016
 20
7392611.8873321246355772
 10
8976619.57060401141643524
 20
7392623.18853785935789347
  0
HATCH
  5
105
330
6d
100
AcDbEntity
  8
building
420
8227727
100
AcDbHatch
 10
0.0
 20
0.0
 30
0.0
210
0.0
220
0.0
230
1.0
  2
SOLID
 70
     1
 71
     0
 91
     1
 92
     2
 72
     0
 73
     1
 93
     5
 10
8976619.57060401141643524
 20
7392623.18853785935789347
 10
8976651.59722151234745979
 20
7392649.43467733915895224
 10
8976660.87013509683310986
 20
7392638.13343343883752823
 10
8976628.84351759403944016
 20
7392611.8873321246355772
 10
8976619.57060401141643524
 20
7392623.18853785935789347
 97
     0
 75
     0
 76
     1
 98
     0
  0
LWPOLYLINE
  5
106
  8
building
100
AcDbEntity
100
AcDbPolyline
  6
CONTINUOUS
420
2302755
 90
     5
 70
   129
 43
260.0
 10
8976818.75456888973712921
 20
7391707.98049399070441723
 10
8976818.99947176873683929
 20
7391718.71539039257913828
 10
8976835.46362445689737797
 20
7391718.32573872245848179
 10
8976835.21872157603502274
 20
7391707.61032541282474995
 10
8976818.75456888973712921
 20
7391707.98049399070441723
  0
HATCH
  5
107
330
6d
100
AcDbEntity
  8
building
420
8227727
100
AcDbHatch
 10
0.0
 20
0.0
 30
0.0
210
0.0
220
0.0
230
1.0
  2
SOLID
 70
     1
 71
     0
 91
     1
 92
     2
 72
     0
 73
     1
 93
     5
 10
8976818.75456888973712921
 20
7391707.98049399070441723
 10
8976818.99947176873683929
 20
7391718.71539039257913828
 10
8976835.46362445689737797
 20
7391718.32573872245848179
 10
8976835.21872157603502274
 20
7391707.61032541282474995
 10
8976818.75456888973712921
 20
7391707.98049399070441723
 97
     0
 75
     0
 76
     1
 98
     0
  0
LWPOLYLINE
  5
108
  8
building
100
AcDbEntity
100
AcDbPolyline
  6
CONTINUOUS
420
2302755
 90
     5
 70
   129
 43
260.0
 10
8975516.77293651923537254
 20
7392249.69239216297864914
 10
8975596.29958074353635311
 20
7392344.63809096813201904
 10
8975614.35560214892029762
 20
7392329.49891863577067852
 10
8975534.8289579264819622
 20
7392234.57288866676390171
 10
8975516.77293651923537254
 20
7392249.69239216297864914
  0
HATCH
  5
109
330
6d
100
AcDbEntity
  8
building
420
8227727
100
AcDbHatch
 10
0.0
 20
0.0
 30
0.0
210
0.0
220
0.0
230
1.0
  2
SOLID
 70
     1
 71
     0
 91
     1
 92
     2
 72
     0
 73
     1
 93
     5
 10
8975516.77293651923537254
 20
7392249.69239216297864914
 10
8975596.29958074353635311
 20
7392344.63809096813201904
 10
8975614.35560214892029762
 20
7392329.49891863577067852
 10
8975534.8289579264819622
 20
7392234.57288866676390171
 10
8975516.77293651923537254
 20
7392249.69239216297864914
 97
     0
 75
     0
 76
     1
 98
     0
  0
LWPOLYLINE
  5
10a
  8
building
100
AcDbEntity
100
AcDbPolyline
  6
CONTINUOUS
420
2302755
 90
     5
 70
   129
 43
260.0
 10
8976282.55084563605487347
 20
7391728.398240702226758
 10
8976286.3691041711717844
 20
7391743.04917597770690918
 10
8976308.27677995711565018
 20
7391737.36024570092558861
 10
8976304.46965337172150612
 20
7391722.70932115148752928
 10
8976282.55084563605487347
 20
7391728.398240702226758
  0
HATCH
  5
10b
330
6d
100
AcDbEntity
  8
building
420
8227727
100
AcDbHatch
 10
0.0
 20
0.0
 30
0.0
210
0.0
220
0.0
230
1.0
  2
SOLID
 70
     1
 71
     0
 91
     1
 92
     2
 72
     0
 73
     1
 93
     5
 10
8976282.55084563605487347
 20
7391728.398240702226758
 10
8976286.3691041711717844
 20
7391743.04917597770690918
 10
8976308.27677995711565018
 20
7391737.36024570092558861
 10
8976304.46965337172150612
 20
7391722.70932115148752928
 10
8976282.55084563605487347
 20
7391728.398240702226758
 97
     0
 75
     0
 76
     1
 98
     0
  0
LWPOLYLINE
  5
10c
  8
building
100
AcDbEntity
100
AcDbPolyline
  6
CONTINUOUS
420
2302755
 90
     5
 70
   129
 43
260.0
 10
8976158.22923831827938557
 20
7391894.99581016879528761
 10
8976160.80071855522692204
 20
7391909.00411847233772278
 10
8976193.1056347843259573
 20
7391903.04230406507849693
 10
8976190.5230225957930088
 20
7391889.05348951928317547
 10
8976158.22923831827938557
 20
7391894.99581016879528761
  0
HATCH
  5
10d
330
6d
100
AcDbEntity
  8
building
420
8227727
100
AcDbHatch
 10
0.0
 20
0.0
 30
0.0
210
0.0
220
0.0
230
1.0
  2
SOLID
 70
     1
 71
     0
 91
     1
 92
     2
 72
     0
 73
     1
 93
     5
 10
8976158.22923831827938557
 20
7391894.99581016879528761
 10
8976160.80071855522692204
 20
7391909.00411847233772278
 10
8976193.1056347843259573
 20
7391903.04230406507849693
 10
8976190.5230225957930088
 20
7391889.05348951928317547
 10
8976158.22923831827938557
 20
7391894.99581016879528761
 97
     0
 75
     0
 76
     1
 98
     0
  0
LWPOLYLINE
  5
10e
  8
building
100
AcDbEntity
100
AcDbPolyline
  6
CONTINUOUS
420
2302755
 90
     5
 70
   129
 43
260.0
 10
8976097.66030337661504745
 20
7392256.25847436208277941
 10
8976137.42362548783421516
 20
7392342.94296981859952211
 10
8976167.58007554523646832
 20
7392329.12872045394033194
 10
8976127.81675343401730061
 20
7392242.42489518783986568
 10
8976097.66030337661504745
 20
7392256.25847436208277941
  0
HATCH
  5
10f
330
6d
100
AcDbEntity
  8
building
420
8227727
100
AcDbHatch
 10
0.0
 20
0.0
 30
0.0
210
0.0
220
0.0
230
1.0
  2
SOLID
 70
     1
 71
     0
 91
     1
 92
     2
 72
     0
 73
     1
 93
     5
 10
8976097.66030337661504745
 20
7392256.25847436208277941
 10
8976137.42362548783421516
 20
7392342.94296981859952211
 10
8976167.58007554523646832
 20
7392329.12872045394033194
 10
8976127.81675343401730061
 20
7392242.42489518783986568
 10
8976097.66030337661504745
 20
7392256.25847436208277941
 97
     0
 75
     0
 76
     1
 98
     0
  0
LWPOLYLINE
  5
110
  8
building
100
AcDbEntity
100
AcDbPolyline
  6
CONTINUOUS
420
2302755
 90
     5
 70
   129
 43
260.0
 10
8974704.22970931977033615
 20
7392216.86206437926739454
 10
8974706.12214066460728645
 20
7392232.0594689017161727
 10
8974742.60153779573738575
 20
7392227.50024442374706268
 10
8974740.70910645462572575
 20
7392212.30284881871193647
 10
8974704.22970931977033615
 20
7392216.86206437926739454
  0
HATCH
  5
111
330
6d
100
AcDbEntity
  8
building
420
8227727
100
AcDbHatch
 10
0.0
 20
0.0
 30
0.0
210
0.0
220
0.0
230
1.0
  2
SOLID
 70
     1
 71
     0
 91
     1
 92
     2
 72
     0
 73
     1
 93
     5
 10
8974704.22970931977033615
 20
7392216.86206437926739454
 10
8974706.12214066460728645
 20
7392232.0594689017161727
 10
8974742.60153779573738575
 20
7392227.50024442374706268
 10
8974740.70910645462572575
 20
7392212.30284881871193647
 10
8974704.22970931977033615
 20
7392216.86206437926739454
 97
     0
 75
     0
 76
     1
 98
     0
  0
LWPOLYLINE
  5
112
  8
building
100
AcDbEntity
100
AcDbPolyline
  6
CONTINUOUS
420
2302755
 90
     5
 70
   129
 43
260.0
 10
8974777.68944129534065723
 20
7392206.22389889508485794
 10
8974779.84903941676020622
 20
7392222.18115258123725653
 10
8974819.12255576997995377
 20
7392216.86206437926739454
 10
8974816.9518256988376379
 20
7392200.90482161566615105
 10
8974777.68944129534065723
 20
7392206.22389889508485794
  0
HATCH
  5
113
330
6d
100
AcDbEntity
  8
building
420
8227727
100
AcDbHatch
 10
0.0
 20
0.0
 30
0.0
210
0.0
220
0.0
230
1.0
  2
SOLID
 70
     1
 71
     0
 91
     1
 92
     2
 72
     0
 73
     1
 93
     5
 10
8974777.68944129534065723
 20
7392206.22389889508485794
 10
8974779.84903941676020622
 20
7392222.18115258123725653
 10
8974819.12255576997995377
 20
7392216.86206437926739454
 10
8974816.9518256988376379
 20
7392200.90482161566615105
 10
8974777.68944129534065723
 20
7392206.22389889508485794
 97
     0
 75
     0
 76
     1
 98
     0
  0
LWPOLYLINE
  5
114
  8
building
100
AcDbEntity
100
AcDbPolyline
  6
CONTINUOUS
420
2302755
 90
     5
 70
   129
 43
260.0
 10
8975009.5902045164257288
 20
7391862.94629852380603552
 10
8975011.71640679053962231
 20
7391887.76761089358478785
 10
8975047.36090774275362492
 20
7391884.72826226335018873
 10
8975045.23470546863973141
 20
7391859.8874766631051898
 10
8975009.5902045164257288
 20
7391862.94629852380603552
  0
HATCH
  5
115
330
6d
100
AcDbEntity
  8
building
420
8227727
100
AcDbHatch
 10
0.0
 20
0.0
 30
0.0
210
0.0
220
0.0
230
1.0
  2
SOLID
 70
     1
 71
     0
 91
     1
 92
     2
 72
     0
 73
     1
 93
     5
 10
8975009.5902045164257288
 20
7391862.94629852380603552
 10
8975011.71640679053962231
 20
7391887.76761089358478785
 10
8975047.36090774275362492
 20
7391884.72826226335018873
 10
8975045.23470546863973141
 20
7391859.8874766631051898
 10
8975009.5902045164257288
 20
7391862.94629852380603552
 97
     0
 75
     0
 76
     1
 98
     0
  0
LWPOLYLINE
  5
116
  8
building
100
AcDbEntity
100
AcDbPolyline
  6
CONTINUOUS
420
2302755
 90
     5
 70
   129
 43
260.0
 10
8975907.69359233975410461
 20
7391932.98780368734151125
 10
8975910.63242689520120621
 20
7391947.0156636256724596
 10
8975945.5978789534419775
 20
7391939.67051713634282351
 10
8975942.64791244640946388
 20
7391925.64267045818269253
 10
8975907.69359233975410461
 20
7391932.98780368734151125
  0
HATCH
  5
117
330
6d
100
AcDbEntity
  8
building
420
8227727
100
AcDbHatch
 10
0.0
 20
0.0
 30
0.0
210
0.0
220
0.0
230
1.0
  2
SOLID
 70
     1
 71
     0
 91
     1
 92
     2
 72
     0
 73
     1
 93
     5
 10
8975907.69359233975410461
 20
7391932.98780368734151125
 10
8975910.63242689520120621
 20
7391947.0156636256724596
 10
8975945.5978789534419775
 20
7391939.67051713634282351
 10
8975942.64791244640946388
 20
7391925.64267045818269253
 10
8975907.69359233975410461
 20
7391932.98780368734151125
 97
     0
 75
     0
 76
     1
 98
     0
  0
LWPOLYLINE
  5
118
  8
building
100
AcDbEntity
100
AcDbPolyline
  6
CONTINUOUS
420
2302755
 90
     5
 70
   129
 43
260.0
 10
8975173.12966844066977501
 20
7391867.60272392444312572
 10
8975176.32453782670199871
 20
7391882.52668354846537113
 10
8975193.87962152436375618
 20
7391878.76646647695451975
 10
8975190.68475213833153248
 20
7391863.84251407533884048
 10
8975173.12966844066977501
 20
7391867.60272392444312572
  0
HATCH
  5
119
330
6d
100
AcDbEntity
  8
building
420
8227727
100
AcDbHatch
 10
0.0
 20
0.0
 30
0.0
210
0.0
220
0.0
230
1.0
  2
SOLID
 70
     1
 71
     0
 91
     1
 92
     2
 72
     0
 73
     1
 93
     5
 10
8975173.12966844066977501
 20
7391867.60272392444312572
 10
8975176.32453782670199871
 20
7391882.52668354846537113
 10
8975193.87962152436375618
 20
7391878.76646647695451975
 10
8975190.68475213833153248
 20
7391863.84251407533884048
 10
8975173.12966844066977501
 20
7391867.60272392444312572
 97
     0
 75
     0
 76
     1
 98
     0
  0
LWPOLYLINE
  5
11a
  8
building
100
AcDbEntity
100
AcDbPolyline
  6
CONTINUOUS
420
2302755
 90
     5
 70
   129
 43
260.0
 10
8976993.79333621077239513
 20
7391837.1898870812729001
 10
8976991.83411317504942417
 20
7391860.33558424934744835
 10
8977015.12215064838528633
 20
7391862.32284428924322128
 10
8977017.08137368410825729
 20
7391839.15765831805765629
 10
8976993.79333621077239513
 20
7391837.1898870812729001
  0
HATCH
  5
11b
330
6d
100
AcDbEntity
  8
building
420
8227727
100
AcDbHatch
 10
0.0
 20
0.0
 30
0.0
210
0.0
220
0.0
230
1.0
  2
SOLID
 70
     1
 71
     0
 91
     1
 92
     2
 72
     0
 73
     1
 93
     5
 10
8976993.79333621077239513
 20
7391837.1898870812729001
 10
8976991.83411317504942417
 20
7391860.33558424934744835
 10
8977015.12215064838528633
 20
7391862.32284428924322128
 10
8977017.08137368410825729
 20
7391839.15765831805765629
 10
8976993.79333621077239513
 20
7391837.1898870812729001
 97
     0
 75
     0
 76
     1
 98
     0
  0
LWPOLYLINE
  5
11c
  8
building
100
AcDbEntity
100
AcDbPolyline
  6
CONTINUOUS
420
2302755
 90
     5
 70
   129
 43
260.0
 10
8974921.70346653647720814
 20
7391895.98944455850869417
 10
8974922.86118923872709274
 20
7391913.71902068611234426
 10
8974936.28631982952356339
 20
7391912.84228245541453362
 10
8974935.11746517568826675
 20
7391895.11270832642912865
 10
8974921.70346653647720814
 20
7391895.98944455850869417
  0
HATCH
  5
11d
330
6d
100
AcDbEntity
  8
building
420
8227727
100
AcDbHatch
 10
0.0
 20
0.0
 30
0.0
210
0.0
220
0.0
230
1.0
  2
SOLID
 70
     1
 71
     0
 91
     1
 92
     2
 72
     0
 73
     1
 93
     5
 10
8974921.70346653647720814
 20
7391895.98944455850869417
 10
8974922.86118923872709274
 20
7391913.71902068611234426
 10
8974936.28631982952356339
 20
7391912.84228245541453362
 10
8974935.11746517568826675
 20
7391895.11270832642912865
 10
8974921.70346653647720814
 20
7391895.98944455850869417
 97
     0
 75
     0
 76
     1
 98
     0
  0
LWPOLYLINE
  5
11e
  8
building
100
AcDbEntity
100
AcDbPolyline
  6
CONTINUOUS
420
2302755
 90
     5
 70
   129
 43
260.0
 10
8977129.19123286381363869
 20
7391846.40529528632760048
 10
8977127.62162804417312145
 20
7391869.97964507900178432
 10
8977150.4198597576469183
 20
7391871.49931636266410351
 10
8977151.98946457728743553
 20
7391847.92496196087449789
 10
8977129.19123286381363869
 20
7391846.40529528632760048
  0
HATCH
  5
11f
330
6d
100
AcDbEntity
  8
building
420
8227727
100
AcDbHatch
 10
0.0
 20
0.0
 30
0.0
210
0.0
220
0.0
230
1.0
  2
SOLID
 70
     1
 71
     0
 91
     1
 92
     2
 72
     0
 73
     1
 93
     5
 10
8977129.19123286381363869
 20
7391846.40529528632760048
 10
8977127.62162804417312145
 20
7391869.97964507900178432
 10
8977150.4198597576469183
 20
7391871.49931636266410351
 10
8977151.98946457728743553
 20
7391847.92496196087449789
 10
8977129.19123286381363869
 20
7391846.40529528632760048
 97
     0
 75
     0
 76
     1
 98
     0
  0
LWPOLYLINE
  5
120
  8
building
100
AcDbEntity
100
AcDbPolyline
  6
CONTINUOUS
420
2302755
 90
     5
 70
   129
 43
260.0
 10
8974181.74054733477532864
 20
7392642.12783673219382763
 10
8974193.72965649329125881
 20
7392678.95438333880156279
 10
8974326.27777417935431004
 20
7392635.79524709656834602
 10
8974314.28866502083837986
 20
7392598.96890501119196415
 10
8974181.74054733477532864
 20
7392642.12783673219382763
  0
HATCH
  5
121
330
6d
100
AcDbEntity
  8
building
420
8227727
100
AcDbHatch
 10
0.0
 20
0.0
 30
0.0
210
0.0
220
0.0
230
1.0
  2
SOLID
 70
     1
 71
     0
 91
     1
 92
     2
 72
     0
 73
     1
 93
     5
 10
8974181.74054733477532864
 20
7392642.12783673219382763
 10
8974193.72965649329125881
 20
7392678.95438333880156279
 10
8974326.27777417935431004
 20
7392635.79524709656834602
 10
8974314.28866502083837986
 20
7392598.96890501119196415
 10
8974181.74054733477532864
 20
7392642.12783673219382763
 97
     0
 75
     0
 76
     1
 98
     0
  0
LWPOLYLINE
  5
122
  8
building
100
AcDbEntity
100
AcDbPolyline
  6
CONTINUOUS
420
2302755
 90
     9
 70
   129
 43
260.0
 10
8975948.9819914735853672
 20
7392541.6448615649715066
 10
8975933.24141547456383705
 20
7392499.30483856331557035
 10
8975901.09234653413295746
 20
7392511.248871392570436
 10
8975943.47167667932808399
 20
7392625.27341726422309875
 10
8975975.76546095870435238
 20
7392613.25126987509429455
 10
8975957.73170345090329647
 20
7392564.73420278169214725
 10
8975988.07739664055407047
 20
7392553.47205140627920628
 10
8975979.47240000031888485
 20
7392530.30480517353862524
 10
8975948.9819914735853672
 20
7392541.6448615649715066
  0
HATCH
  5
123
330
6d
100
AcDbEntity
  8
building
420
8227727
100
AcDbHatch
 10
0.0
 20
0.0
 30
0.0
210
0.0
220
0.0
230
1.0
  2
SOLID
 70
     1
 71
     0
 91
     1
 92
     2
 72
     0
 73
     1
 93
     9
 10
8975948.9819914735853672
 20
7392541.6448615649715066
 10
8975933.24141547456383705
 20
7392499.30483856331557035
 10
8975901.09234653413295746
 20
7392511.248871392570436
 10
8975943.47167667932808399
 20
7392625.27341726422309875
 10
8975975.76546095870435238
 20
7392613.25126987509429455
 10
8975957.73170345090329647
 20
7392564.73420278169214725
 10
8975988.07739664055407047
 20
7392553.47205140627920628
 10
8975979.47240000031888485
 20
7392530.30480517353862524
 10
8975948.9819914735853672
 20
7392541.6448615649715066
 97
     0
 75
     0
 76
     1
 98
     0
  0
LWPOLYLINE
  5
124
  8
building
100
AcDbEntity
100
AcDbPolyline
  6
CONTINUOUS
420
2302755
 90
     5
 70
   129
 43
260.0
 10
8975410.71885764040052891
 20
7391563.3043712405487895
 10
8975412.86732381395995617
 20
7391582.55280321463942528
 10
8975426.32585025019943714
 20
7391581.05267066787928343
 10
8975424.1662521306425333
 20
7391561.80424241069704294
 10
8975410.71885764040052891
 20
7391563.3043712405487895
  0
HATCH
  5
125
330
6d
100
AcDbEntity
  8
building
420
8227727
100
AcDbHatch
 10
0.0
 20
0.0
 30
0.0
210
0.0
220
0.0
230
1.0
  2
SOLID
 70
     1
 71
     0
 91
     1
 92
     2
 72
     0
 73
     1
 93
     5
 10
8975410.71885764040052891
 20
7391563.3043712405487895
 10
8975412.86732381395995617
 20
7391582.55280321463942528
 10
8975426.32585025019943714
 20
7391581.05267066787928343
 10
8975424.1662521306425333
 20
7391561.80424241069704294
 10
8975410.71885764040052891
 20
7391563.3043712405487895
 97
     0
 75
     0
 76
     1
 98
     0
  0
LWPOLYLINE
  5
126
  8
building
100
AcDbEntity
100
AcDbPolyline
  6
CONTINUOUS
420
2302755
 90
     5
 70
   129
 43
260.0
 10
8974617.85691641457378864
 20
7391522.68410192150622606
 10
8974617.93484005890786648
 20
7391542.38052254449576139
 10
8974659.31229478679597378
 20
7391542.20518326852470636
 10
8974659.23437114246189594
 20
7391522.50876309163868427
 10
8974617.85691641457378864
 20
7391522.68410192150622606
  0
HATCH
  5
127
330
6d
100
AcDbEntity
  8
building
420
8227727
100
AcDbHatch
 10
0.0
 20
0.0
 30
0.0
210
0.0
220
0.0
230
1.0
  2
SOLID
 70
     1
 71
     0
 91
     1
 92
     2
 72
     0
 73
     1
 93
     5
 10
8974617.85691641457378864
 20
7391522.68410192150622606
 10
8974617.93484005890786648
 20
7391542.38052254449576139
 10
8974659.31229478679597378
 20
7391542.20518326852470636
 10
8974659.23437114246189594
 20
7391522.50876309163868427
 10
8974617.85691641457378864
 20
7391522.68410192150622606
 97
     0
 75
     0
 76
     1
 98
     0
  0
LWPOLYLINE
  5
128
  8
building
100
AcDbEntity
100
AcDbPolyline
  6
CONTINUOUS
420
2302755
 90
     5
 70
   129
 43
260.0
 10
8974898.42656100913882256
 20
7391532.99013576563447714
 10
8974899.81805464625358582
 20
7391552.88140418659895658
 10
8974928.69433055818080902
 20
7391550.85525894351303577
 10
8974927.30283692292869091
 20
7391530.96399570629000664
 10
8974898.42656100913882256
 20
7391532.99013576563447714
  0
HATCH
  5
129
330
6d
100
AcDbEntity
  8
building
420
8227727
100
AcDbHatch
 10
0.0
 20
0.0
 30
0.0
210
0.0
220
0.0
230
1.0
  2
SOLID
 70
     1
 71
     0
 91
     1
 92
     2
 72
     0
 73
     1
 93
     5
 10
8974898.42656100913882256
 20
7391532.99013576563447714
 10
8974899.81805464625358582
 20
7391552.88140418659895658
 10
8974928.69433055818080902
 20
7391550.85525894351303577
 10
8974927.30283692292869091
 20
7391530.96399570629000664
 10
8974898.42656100913882256
 20
7391532.99013576563447714
 97
     0
 75
     0
 76
     1
 98
     0
  0
LWPOLYLINE
  5
12a
  8
building
100
AcDbEntity
100
AcDbPolyline
  6
CONTINUOUS
420
2302755
 90
     5
 70
   129
 43
260.0
 10
8975671.79645939916372299
 20
7391518.28115023113787174
 10
8975673.3771961685270071
 20
7391528.91837406903505325
 10
8975690.35341851226985455
 20
7391526.38570040557533503
 10
8975688.76154979504644871
 20
7391515.74848003592342138
 10
8975671.79645939916372299
 20
7391518.28115023113787174
  0
HATCH
  5
12b
330
6d
100
AcDbEntity
  8
building
420
8227727
100
AcDbHatch
 10
0.0
 20
0.0
 30
0.0
210
0.0
220
0.0
230
1.0
  2
SOLID
 70
     1
 71
     0
 91
     1
 92
     2
 72
     0
 73
     1
 93
     5
 10
8975671.79645939916372299
 20
7391518.28115023113787174
 10
8975673.3771961685270071
 20
7391528.91837406903505325
 10
8975690.35341851226985455
 20
7391526.38570040557533503
 10
8975688.76154979504644871
 20
7391515.74848003592342138
 10
8975671.79645939916372299
 20
7391518.28115023113787174
 97
     0
 75
     0
 76
     1
 98
     0
  0
LWPOLYLINE
  5
12c
  8
building
100
AcDbEntity
100
AcDbPolyline
  6
CONTINUOUS
420
2302755
 90
     5
 70
   129
 43
260.0
 10
8975877.49261448532342911
 20
7391503.84494116902351379
 10
8975878.71712888404726982
 20
7391521.33983764704316854
 10
8975914.94049119018018246
 20
7391518.80716645251959562
 10
8975913.71597679145634174
 20
7391501.31227567698806524
 10
8975877.49261448532342911
 20
7391503.84494116902351379
  0
HATCH
  5
12d
330
6d
100
AcDbEntity
  8
building
420
8227727
100
AcDbHatch
 10
0.0
 20
0.0
 30
0.0
210
0.0
220
0.0
230
1.0
  2
SOLID
 70
     1
 71
     0
 91
     1
 92
     2
 72
     0
 73
     1
 93
     5
 10
8975877.49261448532342911
 20
7391503.84494116902351379
 10
8975878.71712888404726982
 20
7391521.33983764704316854
 10
8975914.94049119018018246
 20
7391518.80716645251959562
 10
8975913.71597679145634174
 20
7391501.31227567698806524
 10
8975877.49261448532342911
 20
7391503.84494116902351379
 97
     0
 75
     0
 76
     1
 98
     0
  0
LWPOLYLINE
  5
12e
  8
building
100
AcDbEntity
100
AcDbPolyline
  6
CONTINUOUS
420
2302755
 90
     5
 70
   129
 43
260.0
 10
8975951.70931899920105934
 20
7391502.07207523565739393
 10
8975953.82438932359218597
 20
7391520.22935863677412271
 10
8975986.50779181905090809
 20
7391516.43035269994288683
 10
8975984.39272149465978146
 20
7391498.27307817526161671
 10
8975951.70931899920105934
 20
7391502.07207523565739393
  0
HATCH
  5
12f
330
6d
100
AcDbEntity
  8
building
420
8227727
100
AcDbHatch
 10
0.0
 20
0.0
 30
0.0
210
0.0
220
0.0
230
1.0
  2
SOLID
 70
     1
 71
     0
 91
     1
 92
     2
 72
     0
 73
     1
 93
     5
 10
8975951.70931899920105934
 20
7391502.07207523565739393
 10
8975953.82438932359218597
 20
7391520.22935863677412271
 10
8975986.50779181905090809
 20
7391516.43035269994288683
 10
8975984.39272149465978146
 20
7391498.27307817526161671
 10
8975951.70931899920105934
 20
7391502.07207523565739393
 97
     0
 75
     0
 76
     1
 98
     0
  0
LWPOLYLINE
  5
130
  8
building
100
AcDbEntity
100
AcDbPolyline
  6
CONTINUOUS
420
2302755
 90
     5
 70
   129
 43
260.0
 10
8975299.08767227455973625
 20
7391792.26249321643263102
 10
8975301.61462471447885036
 20
7391814.68719203397631645
 10
8975326.86188522726297379
 20
7391811.82321733981370926
 10
8975324.3238008376210928
 20
7391789.41800954565405846
 10
8975299.08767227455973625
 20
7391792.26249321643263102
  0
HATCH
  5
131
330
6d
100
AcDbEntity
  8
building
420
8227727
100
AcDbHatch
 10
0.0
 20
0.0
 30
0.0
210
0.0
220
0.0
230
1.0
  2
SOLID
 70
     1
 71
     0
 91
     1
 92
     2
 72
     0
 73
     1
 93
     5
 10
8975299.08767227455973625
 20
7391792.26249321643263102
 10
8975301.61462471447885036
 20
7391814.68719203397631645
 10
8975326.86188522726297379
 20
7391811.82321733981370926
 10
8975324.3238008376210928
 20
7391789.41800954565405846
 10
8975299.08767227455973625
 20
7391792.26249321643263102
 97
     0
 75
     0
 76
     1
 98
     0
  0
LWPOLYLINE
  5
132
  8
building
100
AcDbEntity
100
AcDbPolyline
  6
CONTINUOUS
420
2302755
 90
     5
 70
   129
 43
260.0
 10
8975309.2177459355443716
 20
7391859.65368140954524279
 10
8975311.87828176654875278
 20
7391882.05909168813377619
 10
8975334.06425628066062927
 20
7391879.42888800706714392
 10
8975331.40372044965624809
 20
7391857.02348530944436789
 10
8975309.2177459355443716
 20
7391859.65368140954524279
  0
HATCH
  5
133
330
6d
100
AcDbEntity
  8
building
420
8227727
100
AcDbHatch
 10
0.0
 20
0.0
 30
0.0
210
0.0
220
0.0
230
1.0
  2
SOLID
 70
     1
 71
     0
 91
     1
 92
     2
 72
     0
 73
     1
 93
     5
 10
8975309.2177459355443716
 20
7391859.65368140954524279
 10
8975311.87828176654875278
 20
7391882.05909168813377619
 10
8975334.06425628066062927
 20
7391879.42888800706714392
 10
8975331.40372044965624809
 20
7391857.02348530944436789
 10
8975309.2177459355443716
 20
7391859.65368140954524279
 97
     0
 75
     0
 76
     1
 98
     0
  0
LWPOLYLINE
  5
134
  8
building
100
AcDbEntity
100
AcDbPolyline
  6
CONTINUOUS
420
2302755
 90
     5
 70
   129
 43
260.0
 10
8975047.75052596069872379
 20
7391587.63767022918909788
 10
8975051.42406915687024593
 20
7391609.80850857682526112
 10
8975065.71749177575111389
 20
7391607.43166699074208736
 10
8975062.04394857957959175
 20
7391585.26083542499691248
 10
8975047.75052596069872379
 20
7391587.63767022918909788
  0
HATCH
  5
135
330
6d
100
AcDbEntity
  8
building
420
8227727
100
AcDbHatch
 10
0.0
 20
0.0
 30
0.0
210
0.0
220
0.0
230
1.0
  2
SOLID
 70
     1
 71
     0
 91
     1
 92
     2
 72
     0
 73
     1
 93
     5
 10
8975047.75052596069872379
 20
7391587.63767022918909788
 10
8975051.42406915687024593
 20
7391609.80850857682526112
 10
8975065.71749177575111389
 20
7391607.43166699074208736
 10
8975062.04394857957959175
 20
7391585.26083542499691248
 10
8975047.75052596069872379
 20
7391587.63767022918909788
 97
     0
 75
     0
 76
     1
 98
     0
  0
LWPOLYLINE
  5
136
  8
building
100
AcDbEntity
100
AcDbPolyline
  6
CONTINUOUS
420
2302755
 90
     5
 70
   129
 43
260.0
 10
8975182.35805422812700272
 20
7391569.6555692320689559
 10
8975186.12065301649272442
 20
7391599.56081971991807222
 10
8975205.45684856735169888
 20
7391597.12553443387150764
 10
8975201.69424977898597717
 20
7391567.22029331605881453
 10
8975182.35805422812700272
 20
7391569.6555692320689559
  0
HATCH
  5
137
330
6d
100
AcDbEntity
  8
building
420
8227727
100
AcDbHatch
 10
0.0
 20
0.0
 30
0.0
210
0.0
220
0.0
230
1.0
  2
SOLID
 70
     1
 71
     0
 91
     1
 92
     2
 72
     0
 73
     1
 93
     5
 10
8975182.35805422812700272
 20
7391569.6555692320689559
 10
8975186.12065301649272442
 20
7391599.56081971991807222
 10
8975205.45684856735169888
 20
7391597.12553443387150764
 10
8975201.69424977898597717
 20
7391567.22029331605881453
 10
8975182.35805422812700272
 20
7391569.6555692320689559
 97
     0
 75
     0
 76
     1
 98
     0
  0
LWPOLYLINE
  5
138
  8
building
100
AcDbEntity
100
AcDbPolyline
  6
CONTINUOUS
420
2302755
 90
     5
 70
   129
 43
260.0
 10
8975345.76393476314842701
 20
7391470.92035414837300777
 10
8975351.16293006762862206
 20
7391496.07160893362015486
 10
8975384.22481883317232132
 20
7391488.98015472758561373
 10
8975378.82582352869212627
 20
7391463.82892289478331804
 10
8975345.76393476314842701
 20
7391470.92035414837300777
  0
HATCH
  5
139
330
6d
100
AcDbEntity
  8
building
420
8227727
100
AcDbHatch
 10
0.0
 20
0.0
 30
0.0
210
0.0
220
0.0
230
1.0
  2
SOLID
 70
     1
 71
     0
 91
     1
 92
     2
 72
     0
 73
     1
 93
     5
 10
8975345.76393476314842701
 20
7391470.92035414837300777
 10
8975351.16293006762862206
 20
7391496.07160893362015486
 10
8975384.22481883317232132
 20
7391488.98015472758561373
 10
8975378.82582352869212627
 20
7391463.82892289478331804
 10
8975345.76393476314842701
 20
7391470.92035414837300777
 97
     0
 75
     0
 76
     1
 98
     0
  0
LWPOLYLINE
  5
13a
  8
building
100
AcDbEntity
100
AcDbPolyline
  6
CONTINUOUS
420
2302755
 90
     5
 70
   129
 43
260.0
 10
8975365.33390124514698982
 20
7391562.68094104342162609
 10
8975367.24859648756682873
 20
7391586.93630906380712986
 10
8975389.79079337231814861
 20
7391585.163424177095294
 10
8975387.88723007962107658
 20
7391560.90806168969720602
 10
8975365.33390124514698982
 20
7391562.68094104342162609
  0
HATCH
  5
13b
330
6d
100
AcDbEntity
  8
building
420
8227727
100
AcDbHatch
 10
0.0
 20
0.0
 30
0.0
210
0.0
220
0.0
230
1.0
  2
SOLID
 70
     1
 71
     0
 91
     1
 92
     2
 72
     0
 73
     1
 93
     5
 10
8975365.33390124514698982
 20
7391562.68094104342162609
 10
8975367.24859648756682873
 20
7391586.93630906380712986
 10
8975389.79079337231814861
 20
7391585.163424177095294
 10
8975387.88723007962107658
 20
7391560.90806168969720602
 10
8975365.33390124514698982
 20
7391562.68094104342162609
 97
     0
 75
     0
 76
     1
 98
     0
  0
LWPOLYLINE
  5
13c
  8
building
100
AcDbEntity
100
AcDbPolyline
  6
CONTINUOUS
420
2302755
 90
     5
 70
   129
 43
260.0
 10
8974645.23037919960916042
 20
7392219.8041237024590373
 10
8974648.97071409225463867
 20
7392241.17792587913572788
 10
8974676.46662831678986549
 20
7392236.36540558561682701
 10
8974672.71516147814691067
 20
7392214.99161664489656687
 10
8974645.23037919960916042
 20
7392219.8041237024590373
  0
HATCH
  5
13d
330
6d
100
AcDbEntity
  8
building
420
8227727
100
AcDbHatch
 10
0.0
 20
0.0
 30
0.0
210
0.0
220
0.0
230
1.0
  2
SOLID
 70
     1
 71
     0
 91
     1
 92
     2
 72
     0
 73
     1
 93
     5
 10
8974645.23037919960916042
 20
7392219.8041237024590373
 10
8974648.97071409225463867
 20
7392241.17792587913572788
 10
8974676.46662831678986549
 20
7392236.36540558561682701
 10
8974672.71516147814691067
 20
7392214.99161664489656687
 10
8974645.23037919960916042
 20
7392219.8041237024590373
 97
     0
 75
     0
 76
     1
 98
     0
  0
LWPOLYLINE
  5
13e
  8
building
100
AcDbEntity
100
AcDbPolyline
  6
CONTINUOUS
420
2302755
 90
     5
 70
   129
 43
260.0
 10
8976029.73315009661018848
 20
7391494.47408296912908554
 10
8976030.95766449347138405
 20
7391513.11840032134205103
 10
8976065.66708172298967838
 20
7391510.83899862132966518
 10
8976064.44256732426583767
 20
7391492.19468673877418041
 10
8976029.73315009661018848
 20
7391494.47408296912908554
  0
HATCH
  5
13f
330
6d
100
AcDbEntity
  8
building
420
8227727
100
AcDbHatch
 10
0.0
 20
0.0
 30
0.0
210
0.0
220
0.0
230
1.0
  2
SOLID
 70
     1
 71
     0
 91
     1
 92
     2
 72
     0
 73
     1
 93
     5
 10
8976029.73315009661018848
 20
7391494.47408296912908554
 10
8976030.95766449347138405
 20
7391513.11840032134205103
 10
8976065.66708172298967838
 20
7391510.83899862132966518
 10
8976064.44256732426583767
 20
7391492.19468673877418041
 10
8976029.73315009661018848
 20
7391494.47408296912908554
 97
     0
 75
     0
 76
     1
 98
     0
  0
LWPOLYLINE
  5
140
  8
building
100
AcDbEntity
100
AcDbPolyline
  6
CONTINUOUS
420
2302755
 90
     5
 70
   129
 43
260.0
 10
8974387.12500784732401371
 20
7391667.04774921573698521
 10
8974390.34214113280177116
 20
7391688.14727612026035786
 10
8974423.7491203173995018
 20
7391683.04286085069179535
 10
8974420.53198703564703465
 20
7391661.94334780611097813
 10
8974387.12500784732401371
 20
7391667.04774921573698521
  0
HATCH
  5
141
330
6d
100
AcDbEntity
  8
building
420
8227727
100
AcDbHatch
 10
0.0
 20
0.0
 30
0.0
210
0.0
220
0.0
230
1.0
  2
SOLID
 70
     1
 71
     0
 91
     1
 92
     2
 72
     0
 73
     1
 93
     5
 10
8974387.12500784732401371
 20
7391667.04774921573698521
 10
8974390.34214113280177116
 20
7391688.14727612026035786
 10
8974423.7491203173995018
 20
7391683.04286085069179535
 10
8974420.53198703564703465
 20
7391661.94334780611097813
 10
8974387.12500784732401371
 20
7391667.04774921573698521
 97
     0
 75
     0
 76
     1
 98
     0
  0
LWPOLYLINE
  5
142
  8
building
100
AcDbEntity
100
AcDbPolyline
  6
CONTINUOUS
420
2302755
 90
     5
 70
   129
 43
260.0
 10
8975411.33111484162509441
 20
7391490.81146370992064476
 10
8975413.3014698289334774
 20
7391508.26736673712730408
 10
8975426.92697549983859062
 20
7391506.72828442417085171
 10
8975424.95662051253020763
 20
7391489.27238485589623451
 10
8975411.33111484162509441
 20
7391490.81146370992064476
  0
HATCH
  5
143
330
6d
100
AcDbEntity
  8
building
420
8227727
100
AcDbHatch
 10
0.0
 20
0.0
 30
0.0
210
0.0
220
0.0
230
1.0
  2
SOLID
 70
     1
 71
     0
 91
     1
 92
     2
 72
     0
 73
     1
 93
     5
 10
8975411.33111484162509441
 20
7391490.81146370992064476
 10
8975413.3014698289334774
 20
7391508.26736673712730408
 10
8975426.92697549983859062
 20
7391506.72828442417085171
 10
8975424.95662051253020763
 20
7391489.27238485589623451
 10
8975411.33111484162509441
 20
7391490.81146370992064476
 97
     0
 75
     0
 76
     1
 98
     0
  0
LWPOLYLINE
  5
144
  8
building
100
AcDbEntity
100
AcDbPolyline
  6
CONTINUOUS
420
2302755
 90
     5
 70
   129
 43
260.0
 10
8975471.3434523269534111
 20
7391481.12890940718352795
 10
8975473.10230028256773949
 20
7391496.22746514063328505
 10
8975492.2715165950357914
 20
7391493.98703243676573038
 10
8975490.50153669342398643
 20
7391478.88848105352371931
 10
8975471.3434523269534111
 20
7391481.12890940718352795
  0
HATCH
  5
145
330
6d
100
AcDbEntity
  8
building
420
8227727
100
AcDbHatch
 10
0.0
 20
0.0
 30
0.0
210
0.0
220
0.0
230
1.0
  2
SOLID
 70
     1
 71
     0
 91
     1
 92
     2
 72
     0
 73
     1
 93
     5
 10
8975471.3434523269534111
 20
7391481.12890940718352795
 10
8975473.10230028256773949
 20
7391496.22746514063328505
 10
8975492.2715165950357914
 20
7391493.98703243676573038
 10
8975490.50153669342398643
 20
7391478.88848105352371931
 10
8975471.3434523269534111
 20
7391481.12890940718352795
 97
     0
 75
     0
 76
     1
 98
     0
  0
LWPOLYLINE
  5
146
  8
building
100
AcDbEntity
100
AcDbPolyline
  6
CONTINUOUS
420
2302755
 90
     5
 70
   129
 43
260.0
 10
8975004.80346641130745411
 20
7391594.35905127227306366
 10
8975007.08551597408950329
 20
7391616.76369673199951649
 10
8975025.79832237586379051
 20
7391614.87391109857708216
 10
8975023.51627281494438648
 20
7391592.44978881999850273
 10
8975004.80346641130745411
 20
7391594.35905127227306366
  0
HATCH
  5
147
330
6d
100
AcDbEntity
  8
building
420
8227727
100
AcDbHatch
 10
0.0
 20
0.0
 30
0.0
210
0.0
220
0.0
230
1.0
  2
SOLID
 70
     1
 71
     0
 91
     1
 92
     2
 72
     0
 73
     1
 93
     5
 10
8975004.80346641130745411
 20
7391594.35905127227306366
 10
8975007.08551597408950329
 20
7391616.76369673199951649
 10
8975025.79832237586379051
 20
7391614.87391109857708216
 10
8975023.51627281494438648
 20
7391592.44978881999850273
 10
8975004.80346641130745411
 20
7391594.35905127227306366
 97
     0
 75
     0
 76
     1
 98
     0
  0
LWPOLYLINE
  5
148
  8
building
100
AcDbEntity
100
AcDbPolyline
  6
CONTINUOUS
420
2302755
 90
     5
 70
   129
 43
260.0
 10
8975126.53132959455251694
 20
7391579.02651808224618435
 10
8975129.94883796200156212
 20
7391597.65155598986893892
 10
8975146.80260886996984482
 20
7391594.55387399531900883
 10
8975143.38510050065815449
 20
7391575.92884351126849651
 10
8975126.53132959455251694
 20
7391579.02651808224618435
  0
HATCH
  5
149
330
6d
100
AcDbEntity
  8
building
420
8227727
100
AcDbHatch
 10
0.0
 20
0.0
 30
0.0
210
0.0
220
0.0
230
1.0
  2
SOLID
 70
     1
 71
     0
 91
     1
 92
     2
 72
     0
 73
     1
 93
     5
 10
8975126.53132959455251694
 20
7391579.02651808224618435
 10
8975129.94883796200156212
 20
7391597.65155598986893892
 10
8975146.80260886996984482
 20
7391594.55387399531900883
 10
8975143.38510050065815449
 20
7391575.92884351126849651
 10
8975126.53132959455251694
 20
7391579.02651808224618435
 97
     0
 75
     0
 76
     1
 98
     0
  0
LWPOLYLINE
  5
14a
  8
building
100
AcDbEntity
100
AcDbPolyline
  6
CONTINUOUS
420
2302755
 90
     5
 70
   129
 43
260.0
 10
8975702.95478487201035023
 20
7391440.00254054553806782
 10
8975703.97892418876290321
 20
7391453.48401692509651184
 10
8975720.68797975592315197
 20
7391452.21769228205084801
 10
8975719.67497238889336586
 20
7391438.73621810041368008
 10
8975702.95478487201035023
 20
7391440.00254054553806782
  0
HATCH
  5
14b
330
6d
100
AcDbEntity
  8
building
420
8227727
100
AcDbHatch
 10
0.0
 20
0.0
 30
0.0
210
0.0
220
0.0
230
1.0
  2
SOLID
 70
     1
 71
     0
 91
     1
 92
     2
 72
     0
 73
     1
 93
     5
 10
8975702.95478487201035023
 20
7391440.00254054553806782
 10
8975703.97892418876290321
 20
7391453.48401692509651184
 10
8975720.68797975592315197
 20
7391452.21769228205084801
 10
8975719.67497238889336586
 20
7391438.73621810041368008
 10
8975702.95478487201035023
 20
7391440.00254054553806782
 97
     0
 75
     0
 76
     1
 98
     0
  0
LWPOLYLINE
  5
14c
  8
building
100
AcDbEntity
100
AcDbPolyline
  6
CONTINUOUS
420
2302755
 90
     5
 70
   129
 43
260.0
 10
8975320.36082696355879307
 20
7391934.00092605501413345
 10
8975326.43887116014957428
 20
7391958.56918395031243563
 10
8975348.29088720493018627
 20
7391953.1723434804007411
 10
8975342.21284300647675991
 20
7391928.58461953792721033
 10
8975320.36082696355879307
 20
7391934.00092605501413345
  0
HATCH
  5
14d
330
6d
100
AcDbEntity
  8
building
420
8227727
100
AcDbHatch
 10
0.0
 20
0.0
 30
0.0
210
0.0
220
0.0
230
1.0
  2
SOLID
 70
     1
 71
     0
 91
     1
 92
     2
 72
     0
 73
     1
 93
     5
 10
8975320.36082696355879307
 20
7391934.00092605501413345
 10
8975326.43887116014957428
 20
7391958.56918395031243563
 10
8975348.29088720493018627
 20
7391953.1723434804007411
 10
8975342.21284300647675991
 20
7391928.58461953792721033
 10
8975320.36082696355879307
 20
7391934.00092605501413345
 97
     0
 75
     0
 76
     1
 98
     0
  0
LWPOLYLINE
  5
14e
  8
building
100
AcDbEntity
100
AcDbPolyline
  6
CONTINUOUS
420
2302755
 90
     5
 70
   129
 43
260.0
 10
8975824.03699500672519207
 20
7391507.89720767177641392
 10
8975825.82923880964517593
 20
7391529.79506899043917656
 10
8975853.70363930426537991
 20
7391527.51566239912062883
 10
8975851.90026355348527431
 20
7391505.61780750285834074
 10
8975824.03699500672519207
 20
7391507.89720767177641392
  0
HATCH
  5
14f
330
6d
100
AcDbEntity
  8
building
420
8227727
100
AcDbHatch
 10
0.0
 20
0.0
 30
0.0
210
0.0
220
0.0
230
1.0
  2
SOLID
 70
     1
 71
     0
 91
     1
 92
     2
 72
     0
 73
     1
 93
     5
 10
8975824.03699500672519207
 20
7391507.89720767177641392
 10
8975825.82923880964517593
 20
7391529.79506899043917656
 10
8975853.70363930426537991
 20
7391527.51566239912062883
 10
8975851.90026355348527431
 20
7391505.61780750285834074
 10
8975824.03699500672519207
 20
7391507.89720767177641392
 97
     0
 75
     0
 76
     1
 98
     0
  0
LWPOLYLINE
  5
150
  8
building
100
AcDbEntity
100
AcDbPolyline
  6
CONTINUOUS
420
2302755
 90
     5
 70
   129
 43
260.0
 10
8975336.14593075774610043
 20
7391992.74276619032025337
 10
8975343.9939548596739769
 20
7392018.20744313951581717
 10
8975364.65485235117375851
 20
7392011.83639525156468153
 10
8975356.80682824924588203
 20
7391986.37173917889595032
 10
8975336.14593075774610043
 20
7391992.74276619032025337
  0
HATCH
  5
151
330
6d
100
AcDbEntity
  8
building
420
8227727
100
AcDbHatch
 10
0.0
 20
0.0
 30
0.0
210
0.0
220
0.0
230
1.0
  2
SOLID
 70
     1
 71
     0
 91
     1
 92
     2
 72
     0
 73
     1
 93
     5
 10
8975336.14593075774610043
 20
7391992.74276619032025337
 10
8975343.9939548596739769
 20
7392018.20744313951581717
 10
8975364.65485235117375851
 20
7392011.83639525156468153
 10
8975356.80682824924588203
 20
7391986.37173917889595032
 10
8975336.14593075774610043
 20
7391992.74276619032025337
 97
     0
 75
     0
 76
     1
 98
     0
  0
LWPOLYLINE
  5
152
  8
building
100
AcDbEntity
100
AcDbPolyline
  6
CONTINUOUS
420
2302755
 90
     5
 70
   129
 43
260.0
 10
8975075.99228077568113804
 20
7391585.24135317467153072
 10
8975079.54337253049015999
 20
7391606.76926864497363567
 10
8975095.62903895042836666
 20
7391604.11967583186924458
 10
8975092.07794719375669956
 20
7391582.59176769945770502
 10
8975075.99228077568113804
 20
7391585.24135317467153072
  0
HATCH
  5
153
330
6d
100
AcDbEntity
  8
building
420
8227727
100
AcDbHatch
 10
0.0
 20
0.0
 30
0.0
210
0.0
220
0.0
230
1.0
  2
SOLID
 70
     1
 71
     0
 91
     1
 92
     2
 72
     0
 73
     1
 93
     5
 10
8975075.99228077568113804
 20
7391585.24135317467153072
 10
8975079.54337253049015999
 20
7391606.76926864497363567
 10
8975095.62903895042836666
 20
7391604.11967583186924458
 10
8975092.07794719375669956
 20
7391582.59176769945770502
 10
8975075.99228077568113804
 20
7391585.24135317467153072
 97
     0
 75
     0
 76
     1
 98
     0
  0
LWPOLYLINE
  5
154
  8
building
100
AcDbEntity
100
AcDbPolyline
  6
CONTINUOUS
420
2302755
 90
     5
 70
   129
 43
260.0
 10
8975498.23824130184948444
 20
7391552.16056399140506983
 10
8975500.89877713099122047
 20
7391570.51278653740882874
 10
8975516.69501287490129471
 20
7391568.23336800560355186
 10
8975514.03447704575955868
 20
7391549.86166868079453707
 10
8975498.23824130184948444
 20
7391552.16056399140506983
  0
HATCH
  5
155
330
6d
100
AcDbEntity
  8
building
420
8227727
100
AcDbHatch
 10
0.0
 20
0.0
 30
0.0
210
0.0
220
0.0
230
1.0
  2
SOLID
 70
     1
 71
     0
 91
     1
 92
     2
 72
     0
 73
     1
 93
     5
 10
8975498.23824130184948444
 20
7391552.16056399140506983
 10
8975500.89877713099122047
 20
7391570.51278653740882874
 10
8975516.69501287490129471
 20
7391568.23336800560355186
 10
8975514.03447704575955868
 20
7391549.86166868079453707
 10
8975498.23824130184948444
 20
7391552.16056399140506983
 97
     0
 75
     0
 76
     1
 98
     0
  0
LWPOLYLINE
  5
156
  8
building
100
AcDbEntity
100
AcDbPolyline
  6
CONTINUOUS
420
2302755
 90
     5
 70
   129
 43
260.0
 10
8975473.15796002559363842
 20
7391551.65402767993509769
 10
8975455.93683480098843575
 20
7391554.05033437628298998
 10
8975457.27266869135200977
 20
7391563.65505074895918369
 10
8975474.49379391595721245
 20
7391561.25874109100550413
 10
8975473.15796002559363842
 20
7391551.65402767993509769
  0
HATCH
  5
157
330
6d
100
AcDbEntity
  8
building
420
8227727
100
AcDbHatch
 10
0.0
 20
0.0
 30
0.0
210
0.0
220
0.0
230
1.0
  2
SOLID
 70
     1
 71
     0
 91
     1
 92
     2
 72
     0
 73
     1
 93
     5
 10
8975473.15796002559363842
 20
7391551.65402767993509769
 10
8975455.93683480098843575
 20
7391554.05033437628298998
 10
8975457.27266869135200977
 20
7391563.65505074895918369
 10
8975474.49379391595721245
 20
7391561.25874109100550413
 10
8975473.15796002559363842
 20
7391551.65402767993509769
 97
     0
 75
     0
 76
     1
 98
     0
  0
LWPOLYLINE
  5
158
  8
building
100
AcDbEntity
100
AcDbPolyline
  6
CONTINUOUS
420
2302755
 90
     5
 70
   129
 43
260.0
 10
8975772.10645255260169506
 20
7391424.30015679076313972
 10
8975774.22152287699282169
 20
7391450.05519990622997284
 10
8975811.21298966929316521
 20
7391447.01602244935929775
 10
8975809.09791934303939342
 20
7391421.26098940428346395
 10
8975772.10645255260169506
 20
7391424.30015679076313972
  0
HATCH
  5
159
330
6d
100
AcDbEntity
  8
building
420
8227727
100
AcDbHatch
 10
0.0
 20
0.0
 30
0.0
210
0.0
220
0.0
230
1.0
  2
SOLID
 70
     1
 71
     0
 91
     1
 92
     2
 72
     0
 73
     1
 93
     5
 10
8975772.10645255260169506
 20
7391424.30015679076313972
 10
8975774.22152287699282169
 20
7391450.05519990622997284
 10
8975811.21298966929316521
 20
7391447.01602244935929775
 10
8975809.09791934303939342
 20
7391421.26098940428346395
 10
8975772.10645255260169506
 20
7391424.30015679076313972
 97
     0
 75
     0
 76
     1
 98
     0
  0
LWPOLYLINE
  5
15a
  8
building
100
AcDbEntity
100
AcDbPolyline
  6
CONTINUOUS
420
2302755
 90
     5
 70
   129
 43
260.0
 10
8974545.52151129767298698
 20
7391528.45080348383635283
 10
8974549.07260305434465408
 20
7391585.96219643857330084
 10
8974565.89297811314463615
 20
7391584.91015494242310524
 10
8974562.35301830619573593
 20
7391527.41825187671929598
 10
8974545.52151129767298698
 20
7391528.45080348383635283
  0
HATCH
  5
15b
330
6d
100
AcDbEntity
  8
building
420
8227727
100
AcDbHatch
 10
0.0
 20
0.0
 30
0.0
210
0.0
220
0.0
230
1.0
  2
SOLID
 70
     1
 71
     0
 91
     1
 92
     2
 72
     0
 73
     1
 93
     5
 10
8974545.52151129767298698
 20
7391528.45080348383635283
 10
8974549.07260305434465408
 20
7391585.96219643857330084
 10
8974565.89297811314463615
 20
7391584.91015494242310524
 10
8974562.35301830619573593
 20
7391527.41825187671929598
 10
8974545.52151129767298698
 20
7391528.45080348383635283
 97
     0
 75
     0
 76
     1
 98
     0
  0
LWPOLYLINE
  5
15c
  8
building
100
AcDbEntity
100
AcDbPolyline
  6
CONTINUOUS
420
2302755
 90
     5
 70
   129
 43
260.0
 10
8974986.38009068556129932
 20
7392172.4585360512137413
 10
8974957.50381477363407612
 20
7392177.13463063724339008
 10
8974961.28867746144533157
 20
7392200.43721060082316399
 10
8974990.16495337150990963
 20
7392195.74161821417510509
 10
8974986.38009068556129932
 20
7392172.4585360512137413
  0
HATCH
  5
15d
330
6d
100
AcDbEntity
  8
building
420
8227727
100
AcDbHatch
 10
0.0
 20
0.0
 30
0.0
210
0.0
220
0.0
230
1.0
  2
SOLID
 70
     1
 71
     0
 91
     1
 92
     2
 72
     0
 73
     1
 93
     5
 10
8974986.38009068556129932
 20
7392172.4585360512137413
 10
8974957.50381477363407612
 20
7392177.13463063724339008
 10
8974961.28867746144533157
 20
7392200.43721060082316399
 10
8974990.16495337150990963
 20
7392195.74161821417510509
 10
8974986.38009068556129932
 20
7392172.4585360512137413
 97
     0
 75
     0
 76
     1
 98
     0
  0
LWPOLYLINE
  5
15e
  8
building
100
AcDbEntity
100
AcDbPolyline
  6
CONTINUOUS
420
2302755
 90
     5
 70
   129
 43
260.0
 10
8975511.99733036383986473
 20
7391478.53780537005513906
 10
8975513.92315755598247051
 20
7391492.72070119343698025
 10
8975529.15166389755904675
 20
7391490.65560761094093323
 10
8975527.22583670541644096
 20
7391476.47271555475890636
 10
8975511.99733036383986473
 20
7391478.53780537005513906
  0
HATCH
  5
15f
330
6d
100
AcDbEntity
  8
building
420
8227727
100
AcDbHatch
 10
0.0
 20
0.0
 30
0.0
210
0.0
220
0.0
230
1.0
  2
SOLID
 70
     1
 71
     0
 91
     1
 92
     2
 72
     0
 73
     1
 93
     5
 10
8975511.99733036383986473
 20
7391478.53780537005513906
 10
8975513.92315755598247051
 20
7391492.72070119343698025
 10
8975529.15166389755904675
 20
7391490.65560761094093323
 10
8975527.22583670541644096
 20
7391476.47271555475890636
 10
8975511.99733036383986473
 20
7391478.53780537005513906
 97
     0
 75
     0
 76
     1
 98
     0
  0
INSERT
  5
160
100
AcDbEntity
100
AcDbBlockReference
  8
highway
  2
symbolLayer0
 50
0.0
 10
8976024.46773817948997021
 20
7394003.832400175742805
  0
INSERT
  5
161
100
AcDbEntity
100
AcDbBlockReference
  8
highway
  2
symbolLayer0
 50
0.0
 10
8976051.49611054360866547
 20
7393971.22851963341236115
  0
INSERT
  5
162
100
AcDbEntity
100
AcDbBlockReference
  8
highway
  2
symbolLayer0
 50
0.0
 10
8975984.18121446296572685
 20
7394037.46930255088955164
  0
INSERT
  5
163
100
AcDbEntity
100
AcDbBlockReference
  8
highway
  2
symbolLayer0
 50
0.0
 10
9013818.78182833641767502
 20
7385541.95703396108001471
  0
INSERT
  5
164
100
AcDbEntity
100
AcDbBlockReference
  8
highway
  2
symbolLayer0
 50
0.0
 10
8974323.427995216101408
 20
7390836.04859696514904499
  0
INSERT
  5
165
100
AcDbEntity
100
AcDbBlockReference
  8
highway
  2
symbolLayer0
 50
0.0
 10
8974325.0643917303532362
 20
7390844.9316514553502202
  0
INSERT
  5
166
100
AcDbEntity
100
AcDbBlockReference
  8
highway
  2
symbolLayer0
 50
0.0
 10
9007033.05736415274441242
 20
7384845.94170910585671663
  0
LWPOLYLINE
  5
167
  8
highway
100
AcDbEntity
100
AcDbPolyline
  6
CONTINUOUS
420
9263769
 90
    11
 70
   128
 43
260.0
 10
8974336.88652165420353413
 20
7390898.56136058736592531
 10
8974358.10401659831404686
 20
7390966.99675748217850924
 10
8974414.22017190605401993
 20
7391067.94639915134757757
 10
8974455.9649809543043375
 20
7391159.99444609507918358
 10
8974467.26390926912426949
 20
7391187.36555710900574923
 10
8974480.61111621558666229
 20
7391213.37307218741625547
 10
8974481.63525553047657013
 20
7391243.49124708864837885
 10
8974430.3058383259922266
 20
7391325.95642028469592333
 10
8974313.95470654964447021
 20
7391556.60249923262745142
 10
8974300.59636765532195568
 20
7391604.11967583186924458
 10
8974309.31268378347158432
 20
7391644.75985318794846535
  0
LWPOLYLINE
  5
168
  8
highway
100
AcDbEntity
100
AcDbPolyline
  6
CONTINUOUS
420
9263769
 90
    36
 70
   128
 43
260.0
 10
8974859.65398236736655235
 20
7394297.99457609187811613
 10
8974598.04204705357551575
 20
7394340.3249113317579031
 10
8974343.02022559568285942
 20
7394374.39203368313610554
 10
8974072.05745305493474007
 20
7394404.46399405598640442
 10
8973947.80263743363320827
 20
7394415.72882835753262043
 10
8973797.74396384321153164
 20
7394425.51248662453144789
 10
8973722.46972416900098324
 20
7394429.23495744820684195
 10
8973532.94829109311103821
 20
7394435.78339212574064732
 10
8973436.50108426809310913
 20
7394436.52398924995213747
 10
8973303.47429277189075947
 20
7394435.0233056740835309
 10
8973025.18669773638248444
 20
7394432.15836510434746742
 10
8972829.62061631307005882
 20
7394427.18857274297624826
 10
8972744.92874771729111671
 20
7394423.50508163310587406
 10
8970064.12163848429918289
 20
7394238.0854626065120101
 10
8965411.37880544178187847
 20
7393928.10118188802152872
 10
8963629.37639682181179523
 20
7393803.90436113998293877
 10
8963183.88692661561071873
 20
7393776.13427812978625298
 10
8962953.9787822812795639
 20
7393780.01233990304172039
 10
8962749.15091922134160995
 20
7393787.49564044922590256
 10
8962545.52530666068196297
 20
7393803.90436113998293877
 10
8962296.57039745151996613
 20
7393832.55149813275784254
 10
8962065.99433617107570171
 20
7393874.08029036596417427
 10
8961486.75449777767062187
 20
7394011.72517126053571701
 10
8961221.90316528454422951
 20
7394080.98701743688434362
 10
8960594.28387618996202946
 20
7394239.83946392126381397
 10
8958631.28710749000310898
 20
7394736.33519776165485382
 10
8957258.94042499177157879
 20
7395079.85670230258256197
 10
8956759.79496022313833237
 20
7395207.89421943482011557
 10
8956118.53903350979089737
 20
7395372.36383513361215591
 10
8951547.61602619849145412
 20
7396536.49813827034085989
 10
8951031.66131832078099251
 20
7396718.03459929209202528
 10
8950200.40528472140431404
 20
7397119.33256725128740072
 10
8949531.58665208518505096
 20
7397577.95356079656630754
 10
8947697.09710355848073959
 20
7399269.13677105307579041
 10
8945208.07121306471526623
 20
7401566.97083595301955938
 10
8944971.11654496006667614
 20
7401782.10026972275227308
  0
LWPOLYLINE
  5
169
  8
highway
100
AcDbEntity
100
AcDbPolyline
  6
CONTINUOUS
420
9263769
 90
     2
 70
   128
 43
260.0
 10
8974985.71217374131083488
 20
7394272.58089444413781166
 10
8974859.65398236736655235
 20
7394297.99457609187811613
  0
LWPOLYLINE
  5
16a
  8
highway
100
AcDbEntity
100
AcDbPolyline
  6
CONTINUOUS
420
9263769
 90
   138
 70
   128
 43
260.0
 10
9020741.72982881963253021
 20
7389233.34940027073025703
 10
9020550.8725618552416563
 20
7389235.99818501248955727
 10
9020238.85516111180186272
 20
7389222.83217564318329096
 10
9020010.85058006830513477
 20
7389212.41234675981104374
 10
9019872.56950860470533371
 20
7389200.68762142583727837
 10
9019751.01975660771131516
 20
7389183.76275840867310762
 10
9019568.21088882721960545
 20
7389147.42019663751125336
 10
9019366.11035329103469849
 20
7389100.87236196268349886
 10
9019191.68384316749870777
 20
7389054.79222780372947454
 10
9018969.84636191464960575
 20
7388987.32797636929899454
 10
9018737.08843861520290375
 20
7388910.12653176300227642
 10
9018596.30267860926687717
 20
7388855.61467185243964195
 10
9018379.26306740753352642
 20
7388758.10191246587783098
 10
9017599.4700344018638134
 20
7388371.64635843969881535
 10
9017001.0387157965451479
 20
7388065.38170951046049595
 10
9016748.39913143962621689
 20
7387926.84897097386419773
 10
9016498.05272859521210194
 20
7387780.39330216310918331
 10
9016190.15414901077747345
 20
7387588.64784279372543097
 10
9015991.64923302829265594
 20
7387459.06120129767805338
 10
9015582.72821554727852345
 20
7387163.42481249198317528
 10
9015311.54280402697622776
 20
7386951.52296219579875469
 10
9015017.40331350266933441
 20
7386702.51695017702877522
 10
9014698.41731263510882854
 20
7386404.26150887552648783
 10
9014377.71699160896241665
 20
7386090.34536560159176588
 10
9014271.49593349359929562
 20
7385973.94418241456151009
 10
9014128.26114469021558762
 20
7385816.15609853342175484
 10
9014051.22805706039071083
 20
7385740.03739067353308201
 10
9013997.38281936384737492
 20
7385680.11633364763110876
 10
9013976.87776916101574898
 20
7385661.46653424203395844
 10
9013938.00500297546386719
 20
7385630.43554753065109253
 10
9013898.55337543785572052
 20
7385598.52865834627300501
 10
9013863.45433999039232731
 20
7385572.40365195460617542
 10
9013825.38307414017617702
 20
7385546.45393742900341749
 10
9013818.78182833641767502
 20
7385541.95703396108001471
 10
9013763.03302734717726707
 20
7385510.82918908633291721
 10
9013680.16679839976131916
 20
7385465.70474219135940075
 10
9013666.16280645877122879
 20
7385458.81345626898109913
 10
9013596.06492310576140881
 20
7385424.25978421326726675
 10
9013485.7139118816703558
 20
7385379.13583975937217474
 10
9013374.53913642652332783
 20
7385340.16360152699053288
 10
9013310.16307490132749081
 20
7385321.12528643943369389
 10
9013264.16586130484938622
 20
7385309.07549761049449444
 10
9013228.877582723274827
 20
7385299.84836983866989613
 10
9013139.51029551401734352
 20
7385281.54987880401313305
 10
9013079.07494396343827248
 20
7385271.32999563682824373
 10
9013001.61884227022528648
 20
7385265.37326993234455585
 10
9012923.72859456203877926
 20
7385262.82316979952156544
 10
9012685.68299544975161552
 20
7385268.13750155456364155
 10
9011550.680599270388484
 20
7385319.37329659890383482
 10
9011101.60664146207273006
 20
7385328.93137931823730469
 10
9010413.67445225641131401
 20
7385290.69911893829703331
 10
9008875.38380483165383339
 20
7385070.94513384252786636
 10
9007327.53081314638257027
 20
7384870.31238590646535158
 10
9007142.09480538405478001
 20
7384853.14389797206968069
 10
9007033.05736415274441242
 20
7384845.94170910585671663
 10
9006948.73284987546503544
 20
7384840.3551509864628315
 10
9006729.78967538475990295
 20
7384834.71020086575299501
 10
9006533.04360735602676868
 20
7384836.57887355424463749
 10
9006277.23141751252114773
 20
7384850.88591371849179268
 10
9006113.59176604822278023
 20
7384866.67235185205936432
 10
9005901.04946227557957172
 20
7384893.768261200748384
 10
9005647.49705809541046619
 20
7384941.53671067394316196
 10
9005494.75558477826416492
 20
7384976.90579655114561319
 10
9004585.35326864011585712
 20
7385214.27409476041793823
 10
9000260.46859988197684288
 20
7386377.17980392463505268
 10
8999340.33508483320474625
 20
7386622.90446572564542294
 10
8999053.21985417790710926
 20
7386685.67540528438985348
 10
8998605.74889703653752804
 20
7386767.04084826912730932
 10
8998153.07931967452168465
 20
7386826.0941187422722578
 10
8998014.82051210850477219
 20
7386840.59952416364103556
 10
8997909.96868373081088066
 20
7386850.19841806869953871
 10
8997674.81739137880504131
 20
7386863.22411658242344856
 10
8997415.54316537268459797
 20
7386868.13066338468343019
 10
8997273.83345359377563
 20
7386870.79811274632811546
 10
8996905.96706431731581688
 20
7386865.13221774809062481
 10
8996594.47286517918109894
 20
7386846.05122715886682272
 10
8996293.23119114339351654
 20
7386818.79275041632354259
 10
8995607.51425980590283871
 20
7386757.59781826380640268
 10
8994540.66165589168667793
 20
7386666.75061455555260181
 10
8993474.22093409113585949
 20
7386580.07098896522074938
 10
8993209.91506710089743137
 20
7386557.52509917970746756
 10
8992766.12878510542213917
 20
7386518.07968416810035706
 10
8992313.57052723318338394
 20
7386477.85569115355610847
 10
8991956.72476754523813725
 20
7386449.29405673872679472
 10
8991816.03919508121907711
 20
7386444.29042742867022753
 10
8991646.69998568668961525
 20
7386443.78422386478632689
 10
8991369.41426606848835945
 20
7386453.34368904400616884
 10
8991234.33919594250619411
 20
7386460.31373420171439648
 10
8991107.07875406742095947
 20
7386471.83963264618068933
 10
8990985.82956469431519508
 20
7386488.87540910299867392
 10
8990823.99328897893428802
 20
7386516.93098060786724091
 10
8990608.91290081851184368
 20
7386559.0632018456235528
 10
8990406.6342540979385376
 20
7386602.11073026061058044
 10
8990248.8166119996458292
 20
7386645.19743678253144026
 10
8990107.01784462668001652
 20
7386686.78519382327795029
 10
8990022.84917763993144035
 20
7386714.84147955756634474
 10
8989932.65812619775533676
 20
7386747.4149348447099328
 10
8989844.97176329977810383
 20
7386781.29303073883056641
 10
8989736.25714858993887901
 20
7386825.08166192565113306
 10
8989547.37023661471903324
 20
7386909.25232022814452648
 10
8989354.96562872640788555
 20
7386998.93411230575293303
 10
8989272.29977486468851566
 20
7387039.00503465812653303
 10
8989208.66955392621457577
 20
7387073.07911071460694075
 10
8989132.93890433944761753
 20
7387116.11001444794237614
 10
8988951.13191197626292706
 20
7387221.89695458021014929
 10
8988681.08195926062762737
 20
7387379.20730830170214176
 10
8988207.10583136044442654
 20
7387654.77583292592316866
 10
8987305.23984475061297417
 20
7388178.87368142232298851
 10
8985665.77091214433312416
 20
7389133.33896033838391304
 10
8985512.04982730560004711
 20
7389222.52055438980460167
 10
8985298.60583565756678581
 20
7389347.26743589900434017
 10
8985004.49974098242819309
 20
7389517.63147753663361073
 10
8984458.87838880904018879
 20
7389837.27620329055935144
 10
8983926.2702851090580225
 20
7390148.92834575101733208
 10
8983657.72314551845192909
 20
7390311.26510526705533266
 10
8983422.60524901561439037
 20
7390460.6124644298106432
 10
8983108.58409743569791317
 20
7390665.4998154966160655
 10
8982778.41048774309456348
 20
7390891.45097104273736477
 10
8982100.02951084822416306
 20
7391350.99031596537679434
 10
8982009.82732745818793774
 20
7391409.53293153457343578
 10
8981879.55012738332152367
 20
7391495.70145045034587383
 10
8981717.72498361766338348
 20
7391594.39801581669598818
 10
8981414.59087823703885078
 20
7391766.25304088275879622
 10
8981231.21428105421364307
 20
7391868.9665310550481081
 10
8981107.88341720588505268
 20
7391933.7086792029440403
 10
8981041.32549365982413292
 20
7391965.6805498581379652
 10
8980923.08193053863942623
 20
7392025.29938026703894138
 10
8980796.78996823355555534
 20
7392083.7496579997241497
 10
8980510.5541615579277277
 20
7392203.43771510478109121
 10
8979399.3518725112080574
 20
7392657.32607291266322136
 10
8977115.79949812032282352
 20
7393584.12392126861959696
 10
8976332.08801903948187828
 20
7393892.22362871561199427
 10
8976160.61147542111575603
 20
7393957.06058788113296032
 10
8976024.46773817948997021
 20
7394003.832400175742805
 10
8975743.61979485675692558
 20
7394088.49009635951370001
 10
8975451.94046508148312569
 20
7394165.39220085181295872
 10
8975254.99402197077870369
 20
7394212.12628946173936129
 10
8974985.71217374131083488
 20
7394272.58089444413781166
  0
LWPOLYLINE
  5
16b
  8
highway
100
AcDbEntity
100
AcDbPolyline
  6
CONTINUOUS
420
9263769
 90
    21
 70
   128
 43
260.0
 10
8976924.49695319309830666
 20
7391519.91764525882899761
 10
8976904.17001417465507984
 20
7391366.98477713670581579
 10
8976890.62243214435875416
 20
7391340.85985819436609745
 10
8976859.65334980562329292
 20
7391320.52105592377483845
 10
8976823.84186961688101292
 20
7391311.8127919128164649
 10
8976678.65898972563445568
 20
7391320.52105592377483845
 10
8976594.45692688971757889
 20
7391344.73670489620417356
 10
8976517.0230890940874815
 20
7391376.66718923673033714
 10
8976343.77656557038426399
 20
7391429.89144861046224833
 10
8976216.01518598943948746
 20
7391456.99076317064464092
 10
8976118.07629798911511898
 20
7391465.73815374914556742
 10
8976074.14962692186236382
 20
7391469.67350862454622984
 10
8975934.36574233323335648
 20
7391482.16145486384630203
 10
8975716.59142249450087547
 20
7391495.72093247435986996
 10
8975573.47908513061702251
 20
7391518.67079187370836735
 10
8975408.80416239984333515
 20
7391545.06905860733240843
 10
8975221.85420956090092659
 20
7391551.65402767993509769
 10
8975133.93407573364675045
 20
7391554.7516925735399127
 10
8974794.20925373025238514
 20
7391601.21681415289640427
 10
8974381.89299178123474121
 20
7391640.90233920700848103
 10
8974309.31268378347158432
 20
7391644.75985318794846535
  0
LWPOLYLINE
  5
16c
  8
highway
100
AcDbEntity
100
AcDbPolyline
  6
CONTINUOUS
420
9263769
 90
    28
 70
   128
 43
260.0
 10
8974615.89769337698817253
 20
7392266.03941421583294868
 10
8974772.05667506158351898
 20
7392245.44489980582147837
 10
8974885.2908610962331295
 20
7392234.78721132036298513
 10
8975031.44222055934369564
 20
7392216.39445240329951048
 10
8975155.32968186400830746
 20
7392192.19557107146829367
 10
8975346.96618526242673397
 20
7392147.67528172209858894
 10
8975623.78436301834881306
 20
7392078.95671867858618498
 10
8975694.43884382583200932
 20
7392056.70660819113254547
 10
8975728.31336487457156181
 20
7392035.41124686785042286
 10
8975754.44004936330020428
 20
7392015.09011018741875887
 10
8975774.76698838174343109
 20
7391985.08584445249289274
 10
8975788.31457041203975677
 20
7391957.01052927877753973
 10
8975799.93632525205612183
 20
7391923.12935060262680054
 10
8975831.87388715893030167
 20
7391905.71148184407502413
 10
8975917.04442956671118736
 20
7391881.51356789004057646
 10
8976091.25943265669047832
 20
7391868.9275651341304183
 10
8976134.81874940358102322
 20
7391856.34158276207745075
 10
8976213.20993481948971748
 20
7391809.89441864937543869
 10
8976278.87730243988335133
 20
7391777.02698323782533407
 10
8976345.26824674755334854
 20
7391758.53789423312991858
 10
8976393.85920448042452335
 20
7391754.44653169438242912
 10
8976475.30054394342005253
 20
7391773.59802347328513861
 10
8976541.68035630322992802
 20
7391785.22921699471771717
 10
8976616.28667903319001198
 20
7391774.98129683081060648
 10
8976731.94762996770441532
 20
7391759.92116491310298443
 10
8976853.76454874314367771
 20
7391783.18352843169122934
 10
8977062.49972593039274216
 20
7391796.87991070654243231
 10
8977253.44604848884046078
 20
7391811.92063142731785774
  0
LWPOLYLINE
  5
16d
  8
highway
100
AcDbEntity
100
AcDbPolyline
  6
CONTINUOUS
420
9263769
 90
    90
 70
   128
 43
260.0
 10
8975151.24425655044615269
 20
7393517.57520920876413584
 10
8975099.35824189148843288
 20
7393634.16736918222159147
 10
8974969.08104181662201881
 20
7393965.34307579696178436
 10
8974938.02290388569235802
 20
7394056.52897929865866899
 10
8974926.00039887987077236
 20
7394101.1186715280637145
 10
8974918.976139010861516
 20
7394142.70736509095877409
 10
8974920.49008408561348915
 20
7394183.30235421843826771
 10
8974930.0079005490988493
 20
7394242.91871162969619036
 10
8974944.03415638953447342
 20
7394291.52421367540955544
 10
8974957.05853681266307831
 20
7394317.58109757211059332
 10
8974970.0829172320663929
 20
7394335.1018188213929534
 10
8974989.12968210875988007
 20
7394353.65550663787871599
 10
8975018.18406920693814754
 20
7394371.68302935548126698
 10
8975050.2552145030349493
 20
7394380.70655102748423815
 10
8975170.50252845883369446
 20
7394383.20117658004164696
 10
8975293.25453095696866512
 20
7394386.70924511644989252
 10
8975370.4100700244307518
 20
7394393.72538693994283676
 10
8975421.51684824749827385
 20
7394399.24085843097418547
 10
8975464.60862313397228718
 20
7394406.25701157096773386
 10
8975492.16019710525870323
 20
7394417.28797626122832298
 10
8975513.21071281284093857
 20
7394433.81496326345950365
 10
8975530.74353261291980743
 20
7394455.35077148023992777
 10
8975704.10137562640011311
 20
7394748.96482586394995451
 10
8975775.24566219374537468
 20
7394880.2323148837313056
 10
8975790.77473115734755993
 20
7394917.30335699766874313
 10
8975804.31118123978376389
 20
7394962.40474766492843628
 10
8975816.33368624374270439
 20
7395029.04379842430353165
 10
8975834.86838146299123764
 20
7395204.9120459258556366
 10
8975841.38057167269289494
 20
7395261.51506387535482645
 10
8975853.90401438623666763
 20
7395330.67110137268900871
 10
8975869.9451530110090971
 20
7395390.78355734702199697
 10
8975896.49485156312584877
 20
7395466.45106482226401567
 10
8975942.09131499379873276
 20
7395569.66179746109992266
 10
8975968.14007584005594254
 20
7395637.30016947351396084
 10
8976033.28424185141921043
 20
7395859.75074899662286043
 10
8976127.97260072082281113
 20
7396156.86826575081795454
 10
8976164.05124768614768982
 20
7396280.12800085358321667
 10
8976188.59719540551304817
 20
7396351.76886881422251463
 10
8976228.6833440400660038
 20
7396461.50251583568751812
 10
8976245.71522613242268562
 20
7396495.55944518651813269
 10
8976264.24992134980857372
 20
7396527.6280697975307703
 10
8976296.82200435549020767
 20
7396575.72150751389563084
 10
8976347.92878257855772972
 20
7396640.85379216820001602
 10
8976396.53087225928902626
 20
7396697.48676721379160881
 10
8976519.28287475742399693
 20
7396836.76080324780195951
 10
8976563.87746276706457138
 20
7396890.37339472770690918
 10
8976601.94872861914336681
 20
7396940.98402055166661739
 10
8976623.50018203631043434
 20
7396974.55565762054175138
 10
8976646.04237892292439938
 20
7397017.13452793937176466
 10
8976662.07238559611141682
 20
7397057.72504190634936094
 10
8976676.61071109399199486
 20
7397103.32626131922006607
 10
8976714.1810392364859581
 20
7397263.64425902813673019
 10
8976765.2878174614161253
 20
7397484.60114235058426857
 10
8976783.32157496921718121
 20
7397545.72462288290262222
 10
8976798.36083817481994629
 20
7397597.33388184476643801
 10
8976805.37396609596908092
 20
7397635.41225908696651459
 10
8976812.88803172297775745
 20
7397739.11975359730422497
 10
8976816.89553339220583439
 20
7397766.1825875686481595
 10
8976826.41334985569119453
 20
7397792.23162919282913208
 10
8976841.44148111343383789
 20
7397814.28369303047657013
 10
8976861.99105911329388618
 20
7397837.8371601440012455
 10
8976935.13909651339054108
 20
7397898.96341993659734726
 10
8976998.26837974227964878
 20
7397948.5667096171528101
 10
8977023.31526516936719418
 20
7397972.10108558647334576
 10
8977054.38453505001962185
 20
7398007.68550942279398441
 10
8977086.95661805756390095
 20
7398052.27838463895022869
 10
8977167.61872108653187752
 20
7398170.01104470249265432
 10
8977224.23581410385668278
 20
7398270.72282653115689754
 10
8977299.88854004628956318
 20
7398419.52126779220998287
 10
8977365.0215741079300642
 20
7398540.78893801104277372
 10
8977394.08709315583109856
 20
7398607.41968900989741087
 10
8977437.67980575002729893
 20
7398713.6361766941845417
 10
8977466.73419284820556641
 20
7398774.26232070475816727
 10
8977506.82034148275852203
 20
7398840.407563048414886
 10
8977589.48619534634053707
 20
7398969.17009677551686764
 10
8977692.70162720791995525
 20
7399125.48986202944070101
 10
8977723.75976513884961605
 20
7399181.59491614438593388
 10
8977764.84778919257223606
 20
7399268.27870397735387087
 10
8977805.43487553484737873
 20
7399340.43467565532773733
 10
8977824.97144616767764091
 20
7399367.48358694650232792
 10
8977834.99020034074783325
 20
7399388.52602791786193848
 10
8977838.99770200997591019
 20
7399410.07557473797351122
 10
8977841.0014528427273035
 20
7399441.62967965845018625
 10
8977847.02383729629218578
 20
7399495.74780327267944813
 10
8977859.04634230025112629
 20
7399543.84011708945035934
 10
8977882.59041460417211056
 20
7399605.97442322317510843
 10
8977912.65780906565487385
 20
7399664.09170680213719606
 10
8978071.97826429083943367
 20
7399923.63554048351943493
 10
8978229.30610062927007675
 20
7400185.17743654083460569
 10
8978351.08962355740368366
 20
7400410.74245292786508799
  0
LWPOLYLINE
  5
16e
  8
highway
100
AcDbEntity
100
AcDbPolyline
  6
CONTINUOUS
420
9263769
 90
    12
 70
   128
 43
260.0
 10
8975151.24425655044615269
 20
7393517.57520920876413584
 10
8975170.35781311988830566
 20
7393601.99376033991575241
 10
8975183.47124913521111012
 20
7393640.96847011893987656
 10
8975200.11351300776004791
 20
7393677.81923800334334373
 10
8975224.99341920204460621
 20
7393724.06320402212440968
 10
8975298.63126236014068127
 20
7393830.79758875072002411
 10
8975369.4861182514578104
 20
7393928.66633749846369028
 10
8975388.27684829756617546
 20
7393953.96196526102721691
 10
8975402.54800701700150967
 20
7393979.25767536647617817
 10
8975414.08070626296103001
 20
7394002.56565988156944513
 10
8975420.49270893260836601
 20
7394027.43278399296104908
 10
8975451.94046508148312569
 20
7394165.39220085181295872
  0
LWPOLYLINE
  5
16f
  8
highway
100
AcDbEntity
100
AcDbPolyline
  6
CONTINUOUS
420
9263769
 90
    10
 70
   128
 43
260.0
 10
8974309.31268378347158432
 20
7391644.75985318794846535
 10
8974358.67174600064754486
 20
7391782.20939120836555958
 10
8974404.68009154498577118
 20
7391938.36514700390398502
 10
8974448.58449871465563774
 20
7392006.47848440334200859
 10
8974539.59931438602507114
 20
7392156.52086814399808645
 10
8974615.89769337698817253
 20
7392266.03941421583294868
 10
8974783.14409634470939636
 20
7392525.49210583139210939
 10
8974946.26054620370268822
 20
7392864.94085240829735994
 10
8975011.72753873839974403
 20
7393011.51184818707406521
 10
8975151.24425655044615269
 20
7393517.57520920876413584
  0
LWPOLYLINE
  5
170
  8
highway
100
AcDbEntity
100
AcDbPolyline
  6
CONTINUOUS
420
9263769
 90
    13
 70
   128
 43
260.0
 10
8974448.58449871465563774
 20
7392006.47848440334200859
 10
8974473.10818253643810749
 20
7391992.41155059169977903
 10
8974496.09565738402307034
 20
7391982.20232371613383293
 10
8974531.0054496992379427
 20
7391971.97362703084945679
 10
8974599.96787424571812153
 20
7391973.6881504887714982
 10
8974657.007981326431036
 20
7391968.56406446266919374
 10
8974734.48634691908955574
 20
7391954.94531231932342052
 10
8974874.10325227119028568
 20
7391931.95519832894206047
 10
8974932.8465475644916296
 20
7391924.29833647981286049
 10
8975045.22357351891696453
 20
7391919.19376610405743122
 10
8975146.54657403938472271
 20
7391911.53691682685166597
 10
8975207.83908567018806934
 20
7391903.02282101754099131
 10
8975279.35072655603289604
 20
7391883.44238435570150614
  0
LWPOLYLINE
  5
171
  8
highway
100
AcDbEntity
100
AcDbPolyline
  6
CONTINUOUS
420
9263769
 90
    15
 70
   128
 43
260.0
 10
8974455.9649809543043375
 20
7391159.99444609507918358
 10
8974427.1332328375428915
 20
7391162.62440631352365017
 10
8974270.48444539494812489
 20
7391203.06746216770261526
 10
8974245.79378233663737774
 20
7391209.02873964328318834
 10
8974048.70262388698756695
 20
7391198.82054178975522518
 10
8974027.84135131165385246
 20
7391200.51541340723633766
 10
8974005.71103654243052006
 20
7391214.99002169072628021
 10
8973956.32971042767167091
 20
7391263.94673643913120031
 10
8973924.82629453204572201
 20
7391283.95420525129884481
 10
8973878.00531670451164246
 20
7391306.94240242708474398
 10
8973827.34381644427776337
 20
7391364.41319285146892071
 10
8973688.57293922081589699
 20
7391592.99529232922941446
 10
8973594.4968375526368618
 20
7391775.19560681190341711
 10
8973509.01460057310760021
 20
7391941.34606718458235264
 10
8973456.03765490278601646
 20
7392087.02288655191659927
  0
LWPOLYLINE
  5
172
  8
highway
100
AcDbEntity
100
AcDbPolyline
  6
CONTINUOUS
420
9263769
 90
     2
 70
   128
 43
260.0
 10
8975702.7766736838966608
 20
7390811.65921008307486773
 10
8975921.27457021363079548
 20
7390747.33549133688211441
  0
LWPOLYLINE
  5
173
  8
highway
100
AcDbEntity
100
AcDbPolyline
  6
CONTINUOUS
420
9263769
 90
     5
 70
   128
 43
260.0
 10
8975698.86935956031084061
 20
7390833.90575639065355062
 10
8975702.7766736838966608
 20
7390811.65921008307486773
 10
8975711.83808023668825626
 20
7390760.11447970010340214
 10
8975712.69524031691253185
 20
7390708.18049012869596481
 10
8975694.63921890780329704
 20
7390635.87087705451995134
  0
LWPOLYLINE
  5
174
  8
highway
100
AcDbEntity
100
AcDbPolyline
  6
CONTINUOUS
420
9263769
 90
     7
 70
   128
 43
260.0
 10
8975346.96618526242673397
 20
7392147.67528172209858894
 10
8975344.06074655242264271
 20
7392119.69679712224751711
 10
8975332.98445722088217735
 20
7392068.18235774617642164
 10
8975279.35072655603289604
 20
7391883.44238435570150614
 10
8975252.95687528885900974
 20
7391782.13146023638546467
 10
8975235.07896506600081921
 20
7391685.92627059109508991
 10
8975221.85420956090092659
 20
7391551.65402767993509769
  0
LWPOLYLINE
  5
175
  8
highway
100
AcDbEntity
100
AcDbPolyline
  6
CONTINUOUS
420
9263769
 90
     7
 70
   128
 43
260.0
 10
8976345.26824674755334854
 20
7391758.53789423312991858
 10
8976319.08590251393616199
 20
7391698.37559925299137831
 10
8976269.71570834703743458
 20
7391604.7236270559951663
 10
8976245.02504528872668743
 20
7391578.32515769358724356
 10
8976159.03073865175247192
 20
7391516.1770857023075223
 10
8976126.68129462562501431
 20
7391484.67463211715221405
 10
8976118.07629798911511898
 20
7391465.73815374914556742
  0
LWPOLYLINE
  5
176
  8
highway
100
AcDbEntity
100
AcDbPolyline
  6
CONTINUOUS
420
9263769
 90
     7
 70
   128
 43
260.0
 10
8975573.47908513061702251
 20
7391518.67079187370836735
 10
8975571.84268861450254917
 20
7391488.29828447196632624
 10
8975571.84268861450254917
 20
7391413.03965794760733843
 10
8975548.36540800705552101
 20
7391127.69471097085624933
 10
8975547.76428275741636753
 20
7391062.08263457845896482
 10
8975662.74618479609489441
 20
7390884.47695145383477211
 10
8975698.86935956031084061
 20
7390833.90575639065355062
  0
LWPOLYLINE
  5
177
  8
highway
100
AcDbEntity
100
AcDbPolyline
  6
CONTINUOUS
420
9263769
 90
     8
 70
   128
 43
260.0
 10
8976074.14962692186236382
 20
7391469.67350862454622984
 10
8976073.24793904647231102
 20
7391453.23075198102742434
 10
8975995.34655938856303692
 20
7391287.11020795442163944
 10
8975974.06227274797856808
 20
7391258.16074970457702875
 10
8975827.6214826125651598
 20
7391088.73260355740785599
 10
8975785.05290933139622211
 20
7391031.69243059400469065
 10
8975757.8130299337208271
 20
7390983.16575508844107389
 10
8975698.86935956031084061
 20
7390833.90575639065355062
  0
LWPOLYLINE
  5
178
  8
highway
100
AcDbEntity
100
AcDbPolyline
  6
CONTINUOUS
420
9263769
 90
    22
 70
   128
 43
260.0
 10
8974336.88652165420353413
 20
7390898.56136058736592531
 10
8974325.0643917303532362
 20
7390844.9316514553502202
 10
8974323.427995216101408
 20
7390836.04859696514904499
 10
8974320.38897311687469482
 20
7390802.62035131454467773
 10
8974360.13003133051097393
 20
7390719.88800961803644896
 10
8974390.50912036746740341
 20
7390630.59183413069695234
 10
8974417.15900646336376667
 20
7390519.79119974188506603
 10
8974419.49671577103435993
 20
7390429.1142890527844429
 10
8974402.19766690209507942
 20
7390218.74013877939432859
 10
8974390.97666222974658012
 20
7390095.79077178705483675
 10
8974369.94841041788458824
 20
7389990.14001771155744791
 10
8974320.13293828815221786
 20
7389798.59325289539992809
 10
8974303.60199390538036823
 20
7389706.03543397784233093
 10
8974305.5834808424115181
 20
7389626.68434299621731043
 10
8974361.12077479809522629
 20
7389284.22180620953440666
 10
8974417.98277069628238678
 20
7388798.29875555448234081
 10
8974464.9150680135935545
 20
7388506.07789663691073656
 10
8974482.77071433700621128
 20
7388292.54257631674408913
 10
8974527.06473972462117672
 20
7387997.01080143917351961
 10
8974567.11749251186847687
 20
7387790.90857535228133202
 10
8974657.0302452240139246
 20
7387674.54034434910863638
 10
8974708.60456531122326851
 20
7387616.35688208416104317
  0
LWPOLYLINE
  5
179
  8
highway
100
AcDbEntity
100
AcDbPolyline
  6
CONTINUOUS
420
9263769
 90
    20
 70
   128
 43
260.0
 10
8974539.59931438602507114
 20
7392156.52086814399808645
 10
8974501.20522201247513294
 20
7392168.85404839552938938
 10
8974372.2861197255551815
 20
7392215.30335790291428566
 10
8974300.71881909295916557
 20
7392219.57031762320548296
 10
8974236.73237578570842743
 20
7392220.99263805150985718
 10
8974200.70938856527209282
 20
7392216.238581751473248
 10
8974145.72869206219911575
 20
7392202.50249279756098986
 10
8974094.06531638652086258
 20
7392179.74545133858919144
 10
8974058.99967678636312485
 20
7392158.89787766523659229
 10
8974028.66511554457247257
 20
7392154.16334302444010973
 10
8973997.37320668250322342
 20
7392168.36695559695363045
 10
8973925.80590604990720749
 20
7392249.88723131641745567
 10
8973859.92703139968216419
 20
7392337.09772731550037861
 10
8973810.63476087711751461
 20
7392402.50624157581478357
 10
8973763.23492169566452503
 20
7392453.71114629693329334
 10
8973693.98306647315621376
 20
7392556.43372285086661577
 10
8973662.33493524231016636
 20
7392616.15450960025191307
 10
8973649.78922862932085991
 20
7392669.28983358293771744
 10
8973627.10231640562415123
 20
7392783.95971174258738756
 10
8973584.07733321376144886
 20
7392836.43367993738502264
  0
LWPOLYLINE
  5
17a
  8
highway
100
AcDbEntity
100
AcDbPolyline
  6
CONTINUOUS
420
9263769
 90
    13
 70
   128
 43
260.0
 10
8974402.19766690209507942
 20
7390218.74013877939432859
 10
8974431.53035272471606731
 20
7390224.62274596374481916
 10
8974480.8226232472807169
 20
7390244.53014503419399261
 10
8974594.58001088909804821
 20
7390302.83067848347127438
 10
8974650.98559687472879887
 20
7390328.42617277149111032
 10
8974701.70275688171386719
 20
7390335.04906934406608343
 10
8974787.48555648513138294
 20
7390326.53670037444680929
 10
8974887.96252887696027756
 20
7390321.78380276169627905
 10
8974974.23513424023985863
 20
7390315.16091749258339405
 10
8974985.60085424967110157
 20
7390310.40802683867514133
 10
8974996.03149053640663624
 20
7390296.67530582472681999
 10
8974999.34881136380136013
 20
7390280.07919876743108034
 10
8974965.25165133364498615
 20
7390152.33711014594882727
  0
ENDSEC
0
SECTION
2
OBJECTS
0
DICTIONARY
5
C
330
0
100
AcDbDictionary
281
   1
3
ACAD_GROUP
350
D
3
ACAD_LAYOUT
350
1A
3
ACAD_MLEADERSTYLE
350
43
3
ACAD_MLINESTYLE
350
17
3
ACAD_PLOTSETTINGS
350
19
3
ACAD_PLOTSTYLENAME
350
E
3
ACAD_TABLESTYLE
350
42
3
ACAD_VISUALSTYLE
350
2A
0
DICTIONARY
5
D
102
{ACAD_REACTORS
330
C
102
}
330
C
100
AcDbDictionary
281
   1
0
DICTIONARY
5
1A
102
{ACAD_REACTORS
330
C
102
}
330
C
100
AcDbDictionary
281
   1
3
Layout1
350
1E
3
Layout2
350
26
3
Model
350
22
0
DICTIONARY
5
43
102
{ACAD_REACTORS
330
C
102
}
330
C
100
AcDbDictionary
281
   1
0
DICTIONARY
5
17
102
{ACAD_REACTORS
330
C
102
}
330
C
100
AcDbDictionary
281
   1
3
Standard
350
18
0
DICTIONARY
5
19
102
{ACAD_REACTORS
330
C
102
}
330
C
100
AcDbDictionary
281
   1
0
ACDBDICTIONARYWDFLT
5
E
102
{ACAD_REACTORS
330
C
102
}
330
C
100
AcDbDictionary
281
   1
3
Normal
350
F
100
AcDbDictionaryWithDefault
340
F
0
DICTIONARY
5
42
102
{ACAD_REACTORS
330
C
102
}
330
C
100
AcDbDictionary
281
   1
0
DICTIONARY
5
2A
102
{ACAD_REACTORS
330
C
102
}
330
C
100
AcDbDictionary
281
   1
3
2dWireframe
350
2F
3
3D Hidden
350
31
3
3dWireframe
350
30
3
Basic
350
32
3
Brighten
350
36
3
ColorChange
350
3A
3
Conceptual
350
34
3
Dim
350
35
3
Facepattern
350
39
3
Flat
350
2B
3
FlatWithEdges
350
2C
3
Gouraud
350
2D
3
GouraudWithEdges
350
2E
3
Linepattern
350
38
3
Realistic
350
33
3
Thicken
350
37
0
LAYOUT
5
1E
102
{ACAD_REACTORS
330
1A
102
}
330
1A
100
AcDbPlotSettings
1

2
none_device
4

6

40
0.0
41
0.0
42
0.0
43
0.0
44
0.0
45
0.0
46
0.0
47
0.0
48
0.0
49
0.0
140
0.0
141
0.0
142
1.0
143
1.0
70
 688
72
   0
73
   0
74
   5
7

75
  16
76
   0
77
   2
78
 300
147
1.0
148
0.0
149
0.0
100
AcDbLayout
1
Layout1
70
   1
71
   1
10
0.0
20
0.0
11
12.0
21
9.0
12
0.0
22
0.0
32
0.0
14
1.000000000000000E+20
24
1.000000000000000E+20
34
1.000000000000000E+20
15
-1.000000000000000E+20
25
-1.000000000000000E+20
35
-1.000000000000000E+20
146
0.0
13
0.0
23
0.0
33
0.0
16
1.0
26
0.0
36
0.0
17
0.0
27
1.0
37
0.0
76
   0
330
1B
0
LAYOUT
5
26
102
{ACAD_REACTORS
330
1A
102
}
330
1A
100
AcDbPlotSettings
1

2
none_device
4

6

40
0.0
41
0.0
42
0.0
43
0.0
44
0.0
45
0.0
46
0.0
47
0.0
48
0.0
49
0.0
140
0.0
141
0.0
142
1.0
143
1.0
70
 688
72
   0
73
   0
74
   5
7

75
  16
76
   0
77
   2
78
 300
147
1.0
148
0.0
149
0.0
100
AcDbLayout
1
Layout2
70
   1
71
   2
10
0.0
20
0.0
11
0.0
21
0.0
12
0.0
22
0.0
32
0.0
14
0.0
24
0.0
34
0.0
15
0.0
25
0.0
35
0.0
146
0.0
13
0.0
23
0.0
33
0.0
16
1.0
26
0.0
36
0.0
17
0.0
27
1.0
37
0.0
76
   0
330
23
0
LAYOUT
5
22
102
{ACAD_REACTORS
330
1A
102
}
330
1A
100
AcDbPlotSettings
1

2
none_device
4

6

40
0.0
41
0.0
42
0.0
43
0.0
44
0.0
45
0.0
46
0.0
47
0.0
48
0.0
49
0.0
140
0.0
141
0.0
142
1.0
143
1.0
70
1712
72
   0
73
   0
74
   0
7

75
   0
76
   0
77
   2
78
 300
147
1.0
148
0.0
149
0.0
100
AcDbLayout
1
Model
70
   1
71
   0
10
0.0
20
0.0
11
12.0
21
9.0
12
0.0
22
0.0
32
0.0
14
30.0
24
49.75
34
0.0
15
130.5
25
163.1318914119703
35
0.0
146
0.0
13
0.0
23
0.0
33
0.0
16
1.0
26
0.0
36
0.0
17
0.0
27
1.0
37
0.0
76
   0
330
1F
331
29
0
MLINESTYLE
5
18
102
{ACAD_REACTORS
330
17
102
}
330
17
100
AcDbMlineStyle
2
Standard
70
   0
3

62
 256
51
90.0
52
90.0
71
   2
49
0.5
62
 256
6
BYLAYER
49
-0.5
62
 256
6
BYLAYER
0
ACDBPLACEHOLDER
5
F
102
{ACAD_REACTORS
330
E
102
}
330
E
0
VISUALSTYLE
5
2F
102
{ACAD_REACTORS
330
2A
102
}
330
2A
100
AcDbVisualStyle
2
2dWireframe
70
   4
71
   0
72
   2
73
   0
90
      0
40
-0.6
41
-30.0
62
   5
63
   7
421
16777215
74
   1
91
      4
64
   7
65
 257
75
   1
175
   1
42
1.0
92
      0
66
 257
43
1.0
76
   1
77
   6
78
   2
67
   7
79
   5
170
   0
171
   0
290
   0
174
   0
93
      1
44
0.0
173
   0
291
   0
45
0.0
1001
ACAD
1000
AcDbSavedByObjectVersion
1070
   0
0
VISUALSTYLE
5
31
102
{ACAD_REACTORS
330
2A
102
}
330
2A
100
AcDbVisualStyle
2
3D Hidden
70
   6
71
   1
72
   2
73
   2
90
      0
40
-0.6
41
-30.0
62
   5
63
   7
421
16777215
74
   2
91
      2
64
   7
65
 257
75
   2
175
   1
42
40.0
92
      0
66
 257
43
1.0
76
   1
77
   6
78
   2
67
   7
79
   3
170
   0
171
   0
290
   0
174
   0
93
      1
44
0.0
173
   0
291
   0
45
0.0
1001
ACAD
1000
AcDbSavedByObjectVersion
1070
   0
0
VISUALSTYLE
5
30
102
{ACAD_REACTORS
330
2A
102
}
330
2A
100
AcDbVisualStyle
2
3dWireframe
70
   5
71
   0
72
   2
73
   0
90
      0
40
-0.6
41
-30.0
62
   5
63
   7
421
16777215
74
   1
91
      4
64
   7
65
 257
75
   1
175
   1
42
1.0
92
      0
66
 257
43
1.0
76
   1
77
   6
78
   2
67
   7
79
   5
170
   0
171
   0
290
   0
174
   0
93
      1
44
0.0
173
   0
291
   0
45
0.0
1001
ACAD
1000
AcDbSavedByObjectVersion
1070
   0
0
VISUALSTYLE
5
32
102
{ACAD_REACTORS
330
2A
102
}
330
2A
100
AcDbVisualStyle
2
Basic
70
   7
71
   1
72
   0
73
   1
90
      0
40
-0.6
41
-30.0
62
   5
63
   7
421
16777215
74
   0
91
      4
64
   7
65
 257
75
   1
175
   1
42
1.0
92
      8
66
   7
43
1.0
76
   1
77
   6
78
   2
67
   7
79
   5
170
   0
171
   0
290
   0
174
   0
93
      1
44
0.0
173
   0
291
   1
45
0.0
1001
ACAD
1000
AcDbSavedByObjectVersion
1070
   0
0
VISUALSTYLE
5
36
102
{ACAD_REACTORS
330
2A
102
}
330
2A
100
AcDbVisualStyle
2
Brighten
70
  12
71
   2
72
   2
73
   0
90
      0
40
-0.6
41
-30.0
62
   5
63
   7
421
16777215
74
   1
91
      4
64
   7
65
 257
75
   1
175
   1
42
1.0
92
      8
66
   7
43
1.0
76
   1
77
   6
78
   2
67
   7
79
   5
170
   0
171
   0
290
   0
174
   0
93
      1
44
50.0
173
   0
291
   1
45
0.0
1001
ACAD
1000
AcDbSavedByObjectVersion
1070
   0
0
VISUALSTYLE
5
3A
102
{ACAD_REACTORS
330
2A
102
}
330
2A
100
AcDbVisualStyle
2
ColorChange
70
  16
71
   2
72
   2
73
   3
90
      0
40
-0.6
41
-30.0
62
   5
63
   8
421
8421504
74
   1
91
      4
64
   7
65
 257
75
   1
175
   1
42
1.0
92
      8
66
   8
424
8421504
43
1.0
76
   1
77
   6
78
   2
67
   7
79
   5
170
   0
171
   0
290
   0
174
   0
93
      1
44
0.0
173
   0
291
   1
45
0.0
1001
ACAD
1000
AcDbSavedByObjectVersion
1070
   0
0
VISUALSTYLE
5
34
102
{ACAD_REACTORS
330
2A
102
}
330
2A
100
AcDbVisualStyle
2
Conceptual
70
   9
71
   3
72
   2
73
   0
90
      0
40
-0.6
41
-30.0
62
   5
63
   7
421
16777215
74
   2
91
      2
64
   7
65
 257
75
   1
175
   1
42
40.0
92
      8
66
   7
43
1.0
76
   1
77
   6
78
   2
67
   7
79
   3
170
   0
171
   0
290
   0
174
   0
93
      1
44
0.0
173
   0
291
   0
45
0.0
1001
ACAD
1000
AcDbSavedByObjectVersion
1070
   0
0
VISUALSTYLE
5
35
102
{ACAD_REACTORS
330
2A
102
}
330
2A
100
AcDbVisualStyle
2
Dim
70
  11
71
   2
72
   2
73
   0
90
      0
40
-0.6
41
-30.0
62
   5
63
   7
421
16777215
74
   1
91
      4
64
   7
65
 257
75
   1
175
   1
42
1.0
92
      8
66
   7
43
1.0
76
   1
77
   6
78
   2
67
   7
79
   5
170
   0
171
   0
290
   0
174
   0
93
      1
44
-50.0
173
   0
291
   1
45
0.0
1001
ACAD
1000
AcDbSavedByObjectVersion
1070
   0
0
VISUALSTYLE
5
39
102
{ACAD_REACTORS
330
2A
102
}
330
2A
100
AcDbVisualStyle
2
Facepattern
70
  15
71
   2
72
   2
73
   0
90
      0
40
-0.6
41
-30.0
62
   5
63
   7
421
16777215
74
   1
91
      4
64
   7
65
 257
75
   1
175
   1
42
1.0
92
      8
66
   7
43
1.0
76
   1
77
   6
78
   2
67
   7
79
   5
170
   0
171
   0
290
   0
174
   0
93
      1
44
0.0
173
   0
291
   1
45
0.0
1001
ACAD
1000
AcDbSavedByObjectVersion
1070
   0
0
VISUALSTYLE
5
2B
102
{ACAD_REACTORS
330
2A
102
}
330
2A
100
AcDbVisualStyle
2
Flat
70
   0
71
   2
72
   1
73
   1
90
      2
40
-0.6
41
30.0
62
   5
63
   7
421
16777215
74
   0
91
      4
64
   7
65
 257
75
   1
175
   1
42
1.0
92
      8
66
   7
43
1.0
76
   1
77
   6
78
   2
67
   7
79
   5
170
   0
171
   0
290
   0
174
   0
93
     13
44
0.0
173
   0
291
   1
45
0.0
1001
ACAD
1000
AcDbSavedByObjectVersion
1070
   0
0
VISUALSTYLE
5
2C
102
{ACAD_REACTORS
330
2A
102
}
330
2A
100
AcDbVisualStyle
2
FlatWithEdges
70
   1
71
   2
72
   1
73
   1
90
      2
40
-0.6
41
30.0
62
   5
63
   7
421
16777215
74
   1
91
      4
64
   7
65
 257
75
   1
175
   1
42
1.0
92
      0
66
 257
43
1.0
76
   1
77
   6
78
   2
67
   7
79
   5
170
   0
171
   0
290
   0
174
   0
93
     13
44
0.0
173
   0
291
   1
45
0.0
1001
ACAD
1000
AcDbSavedByObjectVersion
1070
   0
0
VISUALSTYLE
5
2D
102
{ACAD_REACTORS
330
2A
102
}
330
2A
100
AcDbVisualStyle
2
Gouraud
70
   2
71
   2
72
   2
73
   1
90
      2
40
-0.6
41
30.0
62
   5
63
   7
421
16777215
74
   0
91
      4
64
   7
65
 257
75
   1
175
   1
42
1.0
92
      0
66
   7
43
1.0
76
   1
77
   6
78
   2
67
   7
79
   5
170
   0
171
   0
290
   0
174
   0
93
     13
44
0.0
173
   0
291
   1
45
0.0
1001
ACAD
1000
AcDbSavedByObjectVersion
1070
   0
0
VISUALSTYLE
5
2E
102
{ACAD_REACTORS
330
2A
102
}
330
2A
100
AcDbVisualStyle
2
GouraudWithEdges
70
   3
71
   2
72
   2
73
   1
90
      2
40
-0.6
41
30.0
62
   5
63
   7
421
16777215
74
   1
91
      4
64
   7
65
 257
75
   1
175
   1
42
1.0
92
      0
66
 257
43
1.0
76
   1
77
   6
78
   2
67
   7
79
   5
170
   0
171
   0
290
   0
174
   0
93
     13
44
0.0
173
   0
291
   1
45
0.0
1001
ACAD
1000
AcDbSavedByObjectVersion
1070
   0
0
VISUALSTYLE
5
38
102
{ACAD_REACTORS
330
2A
102
}
330
2A
100
AcDbVisualStyle
2
Linepattern
70
  14
71
   2
72
   2
73
   0
90
      0
40
-0.6
41
-30.0
62
   5
63
   7
421
16777215
74
   1
91
      4
64
   7
65
 257
75
   7
175
   7
42
1.0
92
      8
66
   7
43
1.0
76
   1
77
   6
78
   2
67
   7
79
   5
170
   0
171
   0
290
   0
174
   0
93
      1
44
0.0
173
   0
291
   1
45
0.0
1001
ACAD
1000
AcDbSavedByObjectVersion
1070
   0
0
VISUALSTYLE
5
33
102
{ACAD_REACTORS
330
2A
102
}
330
2A
100
AcDbVisualStyle
2
Realistic
70
   8
71
   2
72
   2
73
   0
90
      0
40
-0.6
41
-30.0
62
   5
63
   7
421
16777215
74
   1
91
      0
64
   7
65
 257
75
   1
175
   1
42
1.0
92
      8
66
   8
424
7895160
43
1.0
76
   1
77
   6
78
   2
67
   7
79
   5
170
   0
171
   0
290
   0
174
   0
93
     13
44
0.0
173
   0
291
   0
45
0.0
1001
ACAD
1000
AcDbSavedByObjectVersion
1070
   0
0
VISUALSTYLE
5
37
102
{ACAD_REACTORS
330
2A
102
}
330
2A
100
AcDbVisualStyle
2
Thicken
70
  13
71
   2
72
   2
73
   0
90
      0
40
-0.6
41
-30.0
62
   5
63
   7
421
16777215
74
   1
91
      4
64
   7
65
 257
75
   1
175
   1
42
1.0
92
     12
66
   7
43
1.0
76
   1
77
   6
78
   2
67
   7
79
   5
170
   0
171
   0
290
   0
174
   0
93
      1
44
0.0
173
   0
291
   1
45
0.0
1001
ACAD
1000
AcDbSavedByObjectVersion
1070
   0
0
ENDSEC
  0
EOF
